<svg xmlns="http://www.w3.org/2000/svg" viewBox="0 0 18 24"><defs><style>.cls-1{fill:#ff803d;}</style></defs><g id="Layer_2" data-name="Layer 2"><g id="Foreground"><path class="cls-1" d="M4.55,17c-.4-.41-.19-.29-1.17-.56a3.52,3.52,0,0,1-1.2-.62L.06,21a.75.75,0,0,0,.72,1L3.25,22,5,23.77a.75.75,0,0,0,1.24-.24l2.44-6A3.37,3.37,0,0,1,4.55,17Zm13.39,4-2.12-5.21a3.52,3.52,0,0,1-1.2.62c-1,.27-.77.15-1.17.56a3.37,3.37,0,0,1-4.08.55l2.44,6a.75.75,0,0,0,1.24.24l1.7-1.8,2.47.1A.75.75,0,0,0,17.94,21Zm-5.61-5.09c.71-.73.8-.67,1.82-.95a1.87,1.87,0,0,0,1.33-1.35,3,3,0,0,1,1.22-2.15,2,2,0,0,0,.49-1.85,3,3,0,0,1,0-2.48A2,2,0,0,0,16.7,5.3a3,3,0,0,1-1.22-2.14A1.9,1.9,0,0,0,14.15,1.8,2.94,2.94,0,0,1,12,.56,1.87,1.87,0,0,0,10.22.07a3,3,0,0,1-2.44,0A1.87,1.87,0,0,0,6,.56,2.94,2.94,0,0,1,3.85,1.8,1.9,1.9,0,0,0,2.52,3.16,3,3,0,0,1,1.3,5.3,2,2,0,0,0,.81,7.16a3,3,0,0,1,0,2.47,2,2,0,0,0,.49,1.86,3,3,0,0,1,1.22,2.15A1.87,1.87,0,0,0,3.85,15c1.05.29,1.13.24,1.82.95A1.86,1.86,0,0,0,8,16.21a1.86,1.86,0,0,1,2,0A1.86,1.86,0,0,0,12.33,15.94ZM4.58,8.25A4.42,4.42,0,1,1,9,12.75a4.46,4.46,0,0,1-4.42-4.5Z"/></g></g></svg>