<svg xmlns="http://www.w3.org/2000/svg" viewBox="0 0 27.5 22"><defs><style>.cls-1{fill:#22b573;}</style></defs><g id="Layer_2" data-name="Layer 2"><g id="Foreground"><path class="cls-1" d="M21.34,16l3-3a1.38,1.38,0,0,0-.55-2.28L22,10.15v-6a1.38,1.38,0,0,0-1.38-1.37H17.88V1a1,1,0,0,0-1-1H10.66a1,1,0,0,0-1,1V2.75H6.88A1.38,1.38,0,0,0,5.5,4.12v6l-1.8.57A1.38,1.38,0,0,0,3.15,13l3,3A5.18,5.18,0,0,1,1,19.25a1,1,0,0,0-1,1V21a1,1,0,0,0,1,1,8,8,0,0,0,6.16-2.55A4.13,4.13,0,0,0,11,22h5.5a4.13,4.13,0,0,0,3.81-2.55A8,8,0,0,0,26.47,22a1,1,0,0,0,1-1v-.69a1,1,0,0,0-1-1A5.19,5.19,0,0,1,21.34,16ZM8.25,5.5h11V9.26L14.17,7.63a1.34,1.34,0,0,0-.84,0L8.25,9.26Z"/></g></g></svg>