<svg xmlns="http://www.w3.org/2000/svg" viewBox="0 0 22.44 24"><defs><style>.cls-1{fill:#ff803d;}</style></defs><g id="Layer_2" data-name="Layer 2"><g id="Foreground"><path class="cls-1" d="M6.25,7.48v.31a5,5,0,1,0,10,0V7.48Z"/><path class="cls-1" d="M16.52,5.3h-.31a5,5,0,0,0-2.62-4.08l-.5,2a.31.31,0,0,1-.31.24H12.7a.32.32,0,0,1-.24-.37V3L13.06.71a.93.93,0,0,0-.9-.71H10.29a.94.94,0,0,0-.91.71L10,3a.3.3,0,0,1-.22.38H9.66a.33.33,0,0,1-.31-.24l-.48-2A5,5,0,0,0,6.25,5.3H5.92a.63.63,0,0,0,0,1.25h10.6a.63.63,0,0,0,0-1.25Z"/><path class="cls-1" d="M4.36,22.75H10.6V24h1.24V22.75h6.24V24h4.36l-1.25-5a3.07,3.07,0,0,0-1-2,12.26,12.26,0,0,0-3.47-1.91L18,21.51H11.84V19.32l2.11-5A13.89,13.89,0,0,0,11.22,14a13,13,0,0,0-2.72.29l2.1,5v2.19H4.48l1.23-6.38A16,16,0,0,0,2.24,17a3,3,0,0,0-1,2L0,24H4.36V22.75Z"/></g></g></svg>