<svg xmlns="http://www.w3.org/2000/svg" viewBox="0 0 22.98 24"><defs><style>.cls-1{fill:#ff544a;}</style></defs><g id="Layer_2" data-name="Layer 2"><g id="Foreground"><path class="cls-1" d="M22.68,14.88l-2.06-1.19a9.2,9.2,0,0,0,0-3.39l2.06-1.19A.59.59,0,0,0,23,8.43,12.09,12.09,0,0,0,20.3,3.85a.58.58,0,0,0-.72-.11L17.52,4.93a9.19,9.19,0,0,0-2.94-1.7V.86a.59.59,0,0,0-.45-.57,12.1,12.1,0,0,0-5.29,0,.59.59,0,0,0-.45.57V3.24a9.3,9.3,0,0,0-2.94,1.7L3.39,3.75a.57.57,0,0,0-.72.11A12,12,0,0,0,0,8.43a.57.57,0,0,0,.26.68L2.35,10.3a9.71,9.71,0,0,0,0,3.4L.29,14.89a.58.58,0,0,0-.26.68,12,12,0,0,0,2.64,4.57.58.58,0,0,0,.72.11l2.06-1.19a8.94,8.94,0,0,0,2.94,1.7v2.38a.59.59,0,0,0,.46.57,12.06,12.06,0,0,0,5.28,0,.59.59,0,0,0,.46-.57V20.76a9.41,9.41,0,0,0,2.94-1.7l2.06,1.19a.57.57,0,0,0,.72-.11A12,12,0,0,0,23,15.57.59.59,0,0,0,22.68,14.88ZM10.28,6.63h2.65a.5.5,0,0,1,.5.53l-.31,5.69a.5.5,0,0,1-.5.47h-2a.5.5,0,0,1-.5-.47L9.78,7.16A.5.5,0,0,1,10.28,6.63ZM11.6,17.92A1.93,1.93,0,1,1,13.53,16,1.92,1.92,0,0,1,11.6,17.92Z"/></g></g></svg>