<svg xmlns="http://www.w3.org/2000/svg" viewBox="0 0 18 24"><defs><style>.cls-1{fill:#ff803d;}</style></defs><g id="Layer_2" data-name="Layer 2"><g id="Foreground"><path class="cls-1" d="M15.75,3H12A3,3,0,0,0,6,3H2.25A2.25,2.25,0,0,0,0,5.25v16.5A2.25,2.25,0,0,0,2.25,24h13.5A2.25,2.25,0,0,0,18,21.75V5.25A2.25,2.25,0,0,0,15.75,3ZM4.5,19.88a1.13,1.13,0,1,1,1.12-1.13A1.13,1.13,0,0,1,4.5,19.88Zm0-4.5a1.13,1.13,0,1,1,1.12-1.13A1.13,1.13,0,0,1,4.5,15.38Zm0-4.5A1.13,1.13,0,1,1,5.62,9.75,1.13,1.13,0,0,1,4.5,10.88Zm4.5-9A1.12,1.12,0,1,1,7.88,3,1.12,1.12,0,0,1,9,1.88Zm6,17.24a.38.38,0,0,1-.38.38H7.88a.38.38,0,0,1-.38-.38v-.74A.38.38,0,0,1,7.88,18h6.74a.38.38,0,0,1,.38.38Zm0-4.5a.38.38,0,0,1-.38.38H7.88a.38.38,0,0,1-.38-.38v-.74a.38.38,0,0,1,.38-.38h6.74a.38.38,0,0,1,.38.38Zm0-4.5a.38.38,0,0,1-.38.38H7.88a.38.38,0,0,1-.38-.38V9.38A.38.38,0,0,1,7.88,9h6.74a.38.38,0,0,1,.38.38Z"/></g></g></svg>