<?xml version="1.0" encoding="UTF-8"?><svg xmlns="http://www.w3.org/2000/svg" viewBox="0 0 24 13.26"><defs><style>.d{fill:#ff544a;}</style></defs><g id="a"/><g id="b"><g id="c"><path class="d" d="M22.74,10.74h-.63c-.22-3.49-2.23-6.61-5.31-8.27l-1.01,4c-.07,.29-.33,.49-.63,.48h-.15c-.34-.07-.56-.41-.49-.75v-.04l1.21-4.73c-.21-.84-.97-1.43-1.83-1.43h-3.79c-.87,0-1.62,.59-1.83,1.43l1.2,4.73c.09,.34-.11,.68-.44,.77h-.19c-.3,.02-.56-.18-.63-.47l-.98-4C4.15,4.12,2.15,7.25,1.93,10.74h-.66c-.7,0-1.26,.57-1.26,1.26s.57,1.26,1.26,1.26H22.74c.7,0,1.26-.57,1.26-1.26s-.57-1.26-1.26-1.26h0Z"/></g></g></svg>