<svg xmlns="http://www.w3.org/2000/svg" viewBox="0 0 21.98 22"><defs><style>.cls-1{fill:#ff803d;}</style></defs><g id="Layer_2" data-name="Layer 2"><g id="Foreground"><path class="cls-1" d="M2.34,20.54a.6.6,0,0,1-.69.14.61.61,0,0,1-.38-.58.63.63,0,0,1,.38-.57.6.6,0,0,1,.69.13.63.63,0,0,1,0,.88ZM21.72,2.44,19.5,4.67,17.74,4.2,17.3,2.47,19.53.25a3.76,3.76,0,0,0-5,4.5l-14,14A1.9,1.9,0,0,0,.06,20.6,1.83,1.83,0,0,0,1.4,21.94a1.92,1.92,0,0,0,1.84-.52l14-14a3.74,3.74,0,0,0,4.47-5Z"/><path class="cls-1" d="M21.61,18.76l-7.08-7.09-2.86,2.86,6.87,6.86.25.25,0,0a2,2,0,0,0,2.59-.22,2.11,2.11,0,0,0,.21-2.63Z"/><polygon class="cls-1" points="4.01 3.24 4.04 3.21 3.33 1.9 0.96 0 0 0.96 1.9 3.32 3.22 4.04 3.24 4.01 8.49 9.26 9.26 8.49 4.01 3.24 4.01 3.24"/></g></g></svg>