<svg width="14" height="18" viewBox="0 0 14 18" fill="none" xmlns="http://www.w3.org/2000/svg">
<path d="M3.47812 13.7812H10.5219V12.4688H3.47812V13.7812ZM3.47812 10.0625H10.5219V8.75H3.47812V10.0625ZM1.3125 17.5C0.9625 17.5 0.65625 17.3687 0.39375 17.1062C0.13125 16.8438 0 16.5375 0 16.1875V1.3125C0 0.9625 0.13125 0.65625 0.39375 0.39375C0.65625 0.13125 0.9625 0 1.3125 0H9.20937L14 4.79063V16.1875C14 16.5375 13.8687 16.8438 13.6062 17.1062C13.3437 17.3687 13.0375 17.5 12.6875 17.5H1.3125ZM8.55312 5.38125V1.3125H1.3125V16.1875H12.6875V5.38125H8.55312ZM1.3125 1.3125V5.38125V1.3125V16.1875V1.3125Z" fill="#2DAA9D"/>
</svg>
