<svg width="18" height="18" viewBox="0 0 18 18" fill="none" xmlns="http://www.w3.org/2000/svg">
<g clip-path="url(#clip0_522_767)">
<path d="M4.85055 14.2552L4.58266 14.4319L2.47943 8.34451L9.11401 5.84799L15.7315 8.34451L13.634 14.4319L13.3718 14.2609V13.7992L14.9962 8.7549L9.11971 6.53767L3.22041 8.7549L4.85055 13.7935V14.2495V14.2552Z" fill="#15ACA2" stroke="#15ACA2" stroke-width="0.65"/>
<path d="M15.5092 8.95441L9.11398 6.53769L2.696 8.95441L1.94362 6.88538C1.89802 6.76568 1.89802 6.62888 1.94362 6.50919C1.98922 6.38949 2.07472 6.29259 2.17731 6.2527L9.11398 3.49399L16.0393 6.247C16.1418 6.29259 16.2273 6.38379 16.2672 6.50919C16.3071 6.62888 16.3071 6.76568 16.2672 6.87968L15.5092 8.94871V8.95441ZM2.5136 6.81128L2.99809 8.14503L9.11398 5.84231L15.2071 8.14503L15.6916 6.81128L9.11398 4.18936L2.5136 6.81128Z" fill="#15ACA2" stroke="#15ACA2" stroke-width="0.65"/>
<path d="M3.57379 6.3838L4.09247 0.946178C4.13237 0.512993 4.44016 0.182404 4.79925 0.182404H13.406C13.7651 0.182404 14.0728 0.507293 14.1127 0.946178L14.6314 6.3781L9.11401 4.18367L3.57379 6.3838ZM4.79925 0.849281C4.71945 0.849281 4.64536 0.923379 4.63966 1.02598L4.21787 5.43193L9.11401 3.48829L13.9873 5.42623L13.5656 1.02598C13.5542 0.929079 13.4858 0.849281 13.4003 0.849281H4.79925Z" fill="#15ACA2" stroke="#15ACA2" stroke-width="0.65"/>
<path d="M8.8461 6.20139H9.39328V14.1241H8.8461V6.20139Z" fill="#15ACA2" stroke="#15ACA2" stroke-width="0.65"/>
<path d="M15.6973 15.5491C15.6517 15.5491 15.6118 15.5491 15.5662 15.5491C14.9677 15.5263 14.4775 15.3268 14.1754 15.1615C13.9303 15.0304 13.7935 14.9221 13.7764 14.9107C13.7764 14.9107 13.4116 14.6257 12.8645 14.4946C12.1463 14.3179 11.4509 14.4661 10.784 14.9278C9.73526 15.6574 8.76059 15.6175 8.12222 15.4579C7.43824 15.2812 6.99935 14.9278 6.97655 14.9164C6.97655 14.9164 6.61747 14.6314 6.07028 14.5003C5.35211 14.3236 4.65673 14.4718 3.98985 14.9335C3.85876 15.0247 3.73906 15.0988 3.61367 15.1672C2.6447 15.6859 1.76693 15.6004 1.20265 15.4294C0.592766 15.247 0.205179 14.9392 0.18808 14.9278L0.615566 14.3977C0.615566 14.3977 0.934755 14.6428 1.41924 14.7853C2.05762 14.9677 2.6846 14.8936 3.28878 14.5687C3.38567 14.5117 3.48827 14.4547 3.59657 14.3749C4.64533 13.6453 5.62 13.6852 6.25838 13.8505C6.94235 14.0272 7.38124 14.3806 7.40404 14.392C7.40404 14.392 7.76313 14.677 8.31031 14.8081C9.02848 14.9848 9.72386 14.8366 10.3907 14.3749C11.4395 13.6453 12.4142 13.6852 13.0526 13.8448C13.7194 14.0158 14.1526 14.3521 14.1925 14.3863C14.1925 14.3863 14.3008 14.4718 14.4889 14.5687C15.0019 14.8423 16.0279 15.1729 17.1849 14.3692L17.5725 14.9278C16.974 15.3439 16.3413 15.5548 15.6916 15.5548L15.6973 15.5491Z" fill="#15ACA2" stroke="#15ACA2" stroke-width="0.5"/>
<path d="M8.89742 17.8575C8.60672 17.8575 8.34453 17.8176 8.12794 17.7606C7.44396 17.5839 7.00508 17.2305 6.98228 17.2191C6.98228 17.2191 6.62319 16.9341 6.07601 16.803C5.35783 16.6263 4.66246 16.7745 3.99558 17.2362C3.86448 17.3274 3.74479 17.4015 3.61939 17.4699L3.3002 16.8714C3.3971 16.8144 3.49969 16.7517 3.60799 16.6776C4.65676 15.9481 5.63142 15.988 6.2698 16.1532C6.95378 16.3299 7.39267 16.6833 7.41546 16.6947C7.41546 16.6947 7.77455 16.9797 8.32173 17.1108C9.03991 17.2875 9.73529 17.1393 10.4022 16.6776C11.4509 15.9481 12.4256 15.988 13.064 16.1475C13.7309 16.3185 14.164 16.6548 14.2039 16.689C14.2039 16.689 14.3122 16.7745 14.5003 16.8714L14.1811 17.4699C13.9417 17.3388 13.7936 17.2305 13.7822 17.2191C13.7822 17.2191 13.4174 16.9341 12.8702 16.803C12.152 16.6263 11.4566 16.7745 10.7898 17.2362C10.1058 17.715 9.4503 17.8632 8.90311 17.8632L8.89742 17.8575Z" fill="#15ACA2" stroke="#15ACA2" stroke-width="0.5"/>
</g>
<defs>
<clipPath id="clip0_522_767">
<rect width="17.7777" height="18" fill="white"/>
</clipPath>
</defs>
</svg>
