<?xml version="1.0" encoding="UTF-8"?><svg id="Layer_2" xmlns="http://www.w3.org/2000/svg" viewBox="0 0 16.01 14.02"><defs><style>.cls-1{fill:#ffffff;}</style></defs><g id="Chat_Overlay"><g><path class="cls-1" d="M6.2,1.5c1.24,0,2.26,1.01,2.26,2.26s-1.01,2.26-2.26,2.26-2.26-1.01-2.26-2.26,1.01-2.26,2.26-2.26m2.28,7.33c1.33,0,2.42,1.09,2.42,2.42v1.06c0,.12-.1,.22-.22,.22H1.72c-.12,0-.22-.1-.22-.22v-1.06c0-1.33,1.09-2.42,2.42-2.42h.22c.66,.27,1.35,.41,2.06,.41s1.4-.14,2.06-.41h.22M6.2,.5c-1.8,0-3.26,1.46-3.26,3.26s1.46,3.26,3.26,3.26,3.26-1.46,3.26-3.26S8,.5,6.2,.5h0Zm2.28,7.33h-.42c-.56,.26-1.19,.41-1.85,.41s-1.29-.15-1.85-.41h-.42c-1.89,0-3.42,1.53-3.42,3.42v1.06c0,.67,.55,1.22,1.22,1.22H10.67c.67,0,1.22-.55,1.22-1.22v-1.06c0-1.89-1.53-3.42-3.42-3.42h0Z"/><path class="cls-1" d="M16.01,6.57h-2.69v2.68h-.89v-2.68h-2.68v-.89h2.68V2.99h.89v2.68h2.69v.89Z"/></g></g></svg>