<svg xmlns="http://www.w3.org/2000/svg" viewBox="0 0 21.38 23"><defs><style>.cls-1{fill:none;stroke:#000;stroke-miterlimit:10;opacity:0.5;}</style></defs><g id="Layer_2" data-name="Layer 2"><g id="Base_UI" data-name="Base UI"><path class="cls-1" d="M10.69,22.5a2.91,2.91,0,0,0,2.91-2.91H7.78A2.91,2.91,0,0,0,10.69,22.5ZM20.49,17C19.61,16,18,14.62,18,10A7.2,7.2,0,0,0,12.15,2.9V2A1.46,1.46,0,1,0,9.24,2V2.9A7.19,7.19,0,0,0,3.42,10c0,4.66-1.65,6.08-2.53,7A1.46,1.46,0,0,0,2,19.43H19.42A1.46,1.46,0,0,0,20.49,17Z"/></g></g></svg>