<svg xmlns="http://www.w3.org/2000/svg" viewBox="0 0 15.75 18"><defs><style>.cls-1{fill:#2daa9d;}</style></defs><g id="Layer_2" data-name="Layer 2"><g id="Foreground"><path class="cls-1" d="M7.88,18a2.24,2.24,0,0,0,2.24-2.25H5.63A2.25,2.25,0,0,0,7.88,18Zm7.57-5.26c-.68-.73-1.95-1.83-1.95-5.43A5.55,5.55,0,0,0,9,1.86V1.12a1.13,1.13,0,0,0-2.25,0v.74a5.55,5.55,0,0,0-4.5,5.45C2.25,10.91,1,12,.3,12.74a1.08,1.08,0,0,0-.3.76,1.12,1.12,0,0,0,1.13,1.12H14.62a1.12,1.12,0,0,0,1.13-1.12A1.08,1.08,0,0,0,15.45,12.74Z"/></g></g></svg>