<svg xmlns="http://www.w3.org/2000/svg" viewBox="0 0 17.68 19"><defs><style>.cls-1{fill:none;stroke:#fff;stroke-miterlimit:10;}</style></defs><g id="Layer_2" data-name="Layer 2"><g id="Base_UI" data-name="Base UI"><path class="cls-1" d="M8.84,18.5a2.39,2.39,0,0,0,2.38-2.38H6.46A2.38,2.38,0,0,0,8.84,18.5Zm8-4.51c-.72-.78-2.07-1.94-2.07-5.75A5.87,5.87,0,0,0,10,2.47V1.69a1.19,1.19,0,1,0-2.38,0v.78A5.86,5.86,0,0,0,2.89,8.24c0,3.81-1.35,5-2.07,5.75a1.17,1.17,0,0,0-.32.8A1.19,1.19,0,0,0,1.69,16H16a1.21,1.21,0,0,0,1.2-1.2A1.17,1.17,0,0,0,16.86,14Z"/></g></g></svg>