<svg xmlns="http://www.w3.org/2000/svg" width="18" height="18" viewBox="0 0 18 18">
  <path id="check_circle_FILL0_wght400_GRAD0_opsz48" d="M11.673,17.095l6.367-6.367L17,9.715l-5.332,5.332-2.7-2.7L7.96,13.36ZM13,22a8.708,8.708,0,0,1-3.487-.709,9.068,9.068,0,0,1-4.8-4.8,8.99,8.99,0,0,1,0-7A8.994,8.994,0,0,1,6.644,6.633,9.226,9.226,0,0,1,9.512,4.709a8.99,8.99,0,0,1,7,0A8.986,8.986,0,0,1,21.291,9.49a8.99,8.99,0,0,1,0,7,9.226,9.226,0,0,1-1.924,2.869,8.994,8.994,0,0,1-2.858,1.935A8.764,8.764,0,0,1,13,22Zm0-1.35a7.361,7.361,0,0,0,5.423-2.239A7.391,7.391,0,0,0,20.65,13a7.38,7.38,0,0,0-2.227-5.422A7.38,7.38,0,0,0,13,5.35,7.391,7.391,0,0,0,7.589,7.577,7.361,7.361,0,0,0,5.35,13a7.372,7.372,0,0,0,2.239,5.411A7.372,7.372,0,0,0,13,20.65ZM13,13Z" transform="translate(-4 -4)" fill="#fff"/>
</svg>
