<svg xmlns="http://www.w3.org/2000/svg" viewBox="0 0 49.29 43.39"><defs><style>.cls-1{fill:#29abe2;}</style></defs><g id="Layer_2" data-name="Layer 2"><g id="Foreground"><path class="cls-1" d="M44.1,0H5.19A5.2,5.2,0,0,0,0,5.19v25.3a5.2,5.2,0,0,0,5.19,5.19H32L39.29,43a1.29,1.29,0,0,0,.92.38,1.27,1.27,0,0,0,.5-.1,1.3,1.3,0,0,0,.8-1.19V35.68H44.1a5.2,5.2,0,0,0,5.19-5.19V5.19A5.2,5.2,0,0,0,44.1,0Zm2.6,30.49a2.61,2.61,0,0,1-2.6,2.6H40.21a1.3,1.3,0,0,0-1.3,1.29V39l-5.49-5.49a1.29,1.29,0,0,0-.92-.38H5.19a2.61,2.61,0,0,1-2.6-2.6V5.19a2.61,2.61,0,0,1,2.6-2.6H44.1a2.61,2.61,0,0,1,2.6,2.6ZM27,21.16a2.35,2.35,0,1,1-2.34-2.34A2.35,2.35,0,0,1,27,21.16Zm9.38,0A2.35,2.35,0,1,1,34,18.82,2.35,2.35,0,0,1,36.35,21.16Zm-18.54,0a2.34,2.34,0,1,1-2.34-2.34A2.34,2.34,0,0,1,17.81,21.16Z"/></g></g></svg>