<svg xmlns="http://www.w3.org/2000/svg" viewBox="0 0 19 17.43"><defs><style>.cls-1{fill:none;stroke:#000000;opacity:0.5;stroke-miterlimit:10;}.cls-2{fill:#000000;opacity:0.5;}</style></defs><g id="Layer_2" data-name="Layer 2"><g id="Base_UI" data-name="Base UI"><path class="cls-1" d="M17,.5H2A1.5,1.5,0,0,0,.5,2v9.75A1.5,1.5,0,0,0,2,13.25H12.53l3,3v-3H17a1.5,1.5,0,0,0,1.5-1.5V2A1.5,1.5,0,0,0,17,.5Z"/><path class="cls-2" d="M10.4,8.16a.91.91,0,1,1-.91-.91A.9.9,0,0,1,10.4,8.16Z"/><path class="cls-2" d="M14,8.16a.91.91,0,0,1-1.81,0,.91.91,0,1,1,1.81,0Z"/><path class="cls-2" d="M6.87,8.16A.91.91,0,1,1,6,7.25.9.9,0,0,1,6.87,8.16Z"/></g></g></svg>