<svg xmlns="http://www.w3.org/2000/svg" viewBox="0 0 15.67 18" fill="#ffffff"><defs><style>.cls-1{opacity:1;}</style></defs><g id="Layer_2" data-name="Layer 2"><g id="My_Notes_FG" data-name="My Notes FG"><g class="cls-1"><rect x="9.3" y="6.4" width="1.14" height="8.11" rx="0.13"/><rect x="5.23" y="6.4" width="1.14" height="8.11" rx="0.13"/><path d="M2.6,18H13.07a1.45,1.45,0,0,0,1.44-1.44V4.35A.31.31,0,0,1,14.82,4h.58a.27.27,0,0,0,.27-.27V3.18a.27.27,0,0,0-.27-.27h-3a.3.3,0,0,1-.26-.15L10.9.7A1.44,1.44,0,0,0,9.67,0H6A1.45,1.45,0,0,0,4.77.7L3.53,2.76a.3.3,0,0,1-.26.15h-3A.27.27,0,0,0,0,3.18v.59A.27.27,0,0,0,.28,4H.86a.3.3,0,0,1,.3.31V16.56A1.45,1.45,0,0,0,2.6,18ZM5,2.45l.64-1.06h0a.52.52,0,0,1,.45-.26H9.55a.51.51,0,0,1,.44.26l.64,1.06a.27.27,0,0,1,0,.3.29.29,0,0,1-.26.16H5.31A.3.3,0,0,1,5,2.75.32.32,0,0,1,5,2.45ZM2.3,4.35A.3.3,0,0,1,2.6,4H13.07a.31.31,0,0,1,.31.31V16.56a.3.3,0,0,1-.31.3H2.6a.29.29,0,0,1-.3-.3Z"/></g></g></g></svg>