<svg xmlns="http://www.w3.org/2000/svg" viewBox="0 0 19.95 17.7" fill="#495057"><defs><style>.cls-1{opacity:0.5;}</style></defs><g id="Layer_2" data-name="Layer 2"><g id="My_Notes_FG" data-name="My Notes FG"><g class="cls-1"><path d="M19.39,2.08,17.87.56A1.9,1.9,0,0,0,16.52,0h0a1.9,1.9,0,0,0-1.35.56L6,9.75l-.35,3.13A1.31,1.31,0,0,0,6,13.94a1.28,1.28,0,0,0,1.06.38L10.2,14l9.19-9.19A1.92,1.92,0,0,0,19.39,2.08Zm-3.26,4L9.56,12.64,7,12.93l.29-2.54L14,3.71,16.23,6Zm2.28-2.29L17.22,5,15,2.73l1.2-1.19a.51.51,0,0,1,.36-.15h0a.51.51,0,0,1,.37.15l1.52,1.52A.52.52,0,0,1,18.41,3.79Z"/><path d="M11.15,2.25H1.54A1.54,1.54,0,0,0,0,3.79V16.16A1.54,1.54,0,0,0,1.54,17.7H13.91a1.54,1.54,0,0,0,1.54-1.54V11.05a.13.13,0,0,0-.08-.12.13.13,0,0,0-.15,0L14.1,12.08a.12.12,0,0,0,0,.09v4.14H1.39V3.64H10a.11.11,0,0,0,.09,0l1.13-1.12a.14.14,0,0,0,0-.15A.13.13,0,0,0,11.15,2.25Z"/></g></g></g></svg>