<?xml version="1.0" encoding="UTF-8"?><svg id="Layer_2" xmlns="http://www.w3.org/2000/svg" viewBox="0 0 17 17"><defs><style>.cls-1{fill:#9f9f9f;}</style></defs><g id="Foreground"><g><path class="cls-1" d="M8.5,17C3.81,17,0,13.19,0,8.5S3.81,0,8.5,0s8.5,3.81,8.5,8.5-3.81,8.5-8.5,8.5ZM8.5,1C4.36,1,1,4.36,1,8.5s3.36,7.5,7.5,7.5,7.5-3.36,7.5-7.5S12.64,1,8.5,1Z"/><path class="cls-1" d="M8.5,6.15c-.29,0-.53-.09-.72-.26s-.28-.39-.28-.64,.09-.47,.28-.63,.42-.25,.72-.25,.54,.08,.72,.25,.28,.38,.28,.63-.09,.48-.28,.65-.42,.25-.72,.25Zm.85,6.49h-1.73V7.03h1.73v5.6Z"/></g></g></svg>