<?xml version="1.0" encoding="UTF-8"?><svg id="Layer_2" xmlns="http://www.w3.org/2000/svg" viewBox="0 0 43.07 43"><defs><style>.cls-1{fill:#fff;}.cls-2{fill:none;stroke:#fff;stroke-linecap:round;stroke-linejoin:round;stroke-width:.7px;}</style></defs><g id="FG"><g><g><path class="cls-1" d="M21.54,0L12.94,8.6v-3.44H6.06V15.48L0,21.54l1.22,1.22L21.54,2.43l20.32,20.32,1.22-1.22L21.54,0ZM7.78,6.88h3.44v3.44l-3.44,3.44V6.88h0Z"/><path class="cls-1" d="M6.06,22.36v20.64h12.04v-12.04h6.88v12.04h12.04V22.36L21.54,6.88,6.06,22.36h0Zm29.24,18.92h-8.6v-12.04h-10.32v12.04H7.78V23.07l13.76-13.76,13.76,13.76v18.21Z"/></g><g><path class="cls-1" d="M21.54,0L12.94,8.6v-3.44H6.06V15.48L0,21.54l1.22,1.22L21.54,2.43l20.32,20.32,1.22-1.22L21.54,0ZM7.78,6.88h3.44v3.44l-3.44,3.44V6.88h0Z"/><path class="cls-1" d="M6.06,22.36v20.64h12.04v-12.04h6.88v12.04h12.04V22.36L21.54,6.88,6.06,22.36h0Zm29.24,18.92h-8.6v-12.04h-10.32v12.04H7.78V23.07l13.76-13.76,13.76,13.76v18.21Z"/></g><g><path class="cls-2" d="M21.54,0L12.94,8.6v-3.44H6.06V15.48L0,21.54l1.22,1.22L21.54,2.43l20.32,20.32,1.22-1.22L21.54,0ZM7.78,6.88h3.44v3.44l-3.44,3.44V6.88h0Z"/><path class="cls-2" d="M6.06,22.36v20.64h12.04v-12.04h6.88v12.04h12.04V22.36L21.54,6.88,6.06,22.36h0Zm29.24,18.92h-8.6v-12.04h-10.32v12.04H7.78V23.07l13.76-13.76,13.76,13.76v18.21Z"/></g></g></g></svg>