<?xml version="1.0" encoding="UTF-8"?><svg id="Layer_2" xmlns="http://www.w3.org/2000/svg" viewBox="0 0 10.85 12.4"><defs><style>.cls-1{fill:none;stroke:#2daa9d;stroke-miterlimit:10;stroke-width:1.4px;}</style></defs><g id="Layer_2-2"><g id="FG"><path class="cls-1" d="M5.43,6.05c1.48,0,2.67-1.2,2.67-2.67S6.91,.7,5.43,.7,2.76,1.9,2.76,3.37s1.2,2.67,2.67,2.67h0Zm1.89,.93h-.35c-.47,.22-.99,.34-1.54,.34s-1.07-.12-1.54-.34h-.35c-1.57,0-2.84,1.27-2.84,2.84v.88c0,.56,.45,1.01,1.01,1.01h7.43c.56,0,1.01-.45,1.01-1.01v-.88c0-1.57-1.27-2.84-2.84-2.84h0Z"/></g></g></svg>