<svg width="22" height="22" viewBox="0 0 22 22" fill="none" xmlns="http://www.w3.org/2000/svg">
<path d="M20.0287 1.97076C18.7344 0.676413 16.6278 0.676413 15.3337 1.97076L2.2545 15.0496C2.19062 15.1134 2.14641 15.1945 2.12718 15.2828L1.01069 20.4286C0.976764 20.5851 1.02478 20.7483 1.138 20.8616C1.22729 20.9509 1.34756 20.9995 1.47121 20.9995C1.50454 20.9995 1.53802 20.996 1.57106 20.989L6.71687 19.8725C6.80513 19.8532 6.88619 19.809 6.95021 19.7452L20.029 6.66598C21.3237 5.37148 21.3234 3.26492 20.0287 1.97076ZM6.38152 18.9807L2.08683 19.9128L3.01889 15.6181L14.2909 4.34603L17.6535 7.70859L6.38152 18.9807ZM19.3626 5.99966L18.3201 7.04213L14.9575 3.67958L16 2.63711C16.4492 2.1879 17.0462 1.94061 17.6813 1.94061C18.3165 1.94061 18.9134 2.1879 19.3626 2.63711C19.8119 3.08631 20.0591 3.68326 20.0591 4.3184C20.0591 4.95355 19.8118 5.55057 19.3626 5.99966Z" fill="#2DAA9D" stroke="#56A79D" stroke-width="0.5"/>
</svg>
