<svg xmlns="http://www.w3.org/2000/svg" width="23.791" height="25.292" viewBox="0 0 23.791 25.292">
    <path data-name="Path 917" d="M24.86 23.539a.561.561 0 0 0-.731-.1 2.567 2.567 0 0 1-2.662.313c-.1-.052-.261-.1-.365-.157 1.3-1.827 2.505-4.175 3.758-5.637a.523.523 0 0 0-.1-.783l-1.827-1.148V8.768a1.292 1.292 0 0 0-1.3-1.3h-1.3V3.132a1.515 1.515 0 0 0-1.514-1.514h-5.076V.522a.522.522 0 0 0-1.044 0v1.044H7.636a1.515 1.515 0 0 0-1.513 1.513v4.385h-1.3a1.292 1.292 0 0 0-1.3 1.3v7.255l-1.837 1.153a.523.523 0 0 0-.1.783c1.357 1.618 2.3 3.81 3.706 5.689a2.385 2.385 0 0 1-2.714-.209.517.517 0 0 0-.731.731c1.514 1.514 3.915.626 4.593 0 1.253-1.148 2.871-.1 3.079 0a3.3 3.3 0 0 0 4.228-.052c.835-.835 2.662.1 2.662.1a4.421 4.421 0 0 0 4.175.365.446.446 0 0 1 .365 0 3.556 3.556 0 0 0 3.862-.418.388.388 0 0 0 .049-.622zM7.115 3.132a.468.468 0 0 1 .47-.47h11.169a.468.468 0 0 1 .47.47v4.384H7.115zM4.557 8.768a.247.247 0 0 1 .261-.261h16.806a.247.247 0 0 1 .261.261v6.576l-8.4-5.324a.565.565 0 0 0-.574 0l-8.354 5.325zm5.585 14.666a3.626 3.626 0 0 0-3.967-.313c-1.253-1.67-2.14-3.706-3.445-5.376l9.97-6.315v12.161a2.053 2.053 0 0 1-2.558-.156zm6.733-.052a4.643 4.643 0 0 0-3.132-.418V11.43l9.969 6.315c-1.409 1.827-2.766 4.489-4.123 6.159a3.639 3.639 0 0 1-2.714-.521z" transform="translate(-1.327 .125)" style="fill:#3ac47d;stroke:#3ac47d;stroke-width:.25px"/>
</svg>
