<svg xmlns="http://www.w3.org/2000/svg" viewBox="0 0 14.24 16.28"><defs><style>.cls-1{fill:#fff;}</style></defs><g id="Layer_2" data-name="Layer 2"><g id="Pop_Up_FG" data-name="Pop Up FG"><path class="cls-1" d="M7.62,1.5A3.07,3.07,0,1,1,4.55,4.57,3.07,3.07,0,0,1,7.62,1.5m2.85,9.16a3.27,3.27,0,0,1,3.27,3.27v1.32a.52.52,0,0,1-.52.53H2a.53.53,0,0,1-.53-.53V13.93a3.28,3.28,0,0,1,3.27-3.27H5.1a6.41,6.41,0,0,0,2.52.51,6.46,6.46,0,0,0,2.53-.51h.32M7.62.5a4.07,4.07,0,1,0,4.07,4.07A4.07,4.07,0,0,0,7.62.5Zm2.85,9.16H9.94a5.53,5.53,0,0,1-4.64,0H4.77A4.27,4.27,0,0,0,.5,13.93v1.32A1.52,1.52,0,0,0,2,16.78H13.22a1.52,1.52,0,0,0,1.52-1.53V13.93a4.27,4.27,0,0,0-4.27-4.27Z" transform="translate(-0.5 -0.5)"/></g></g></svg>