<svg xmlns="http://www.w3.org/2000/svg" viewBox="0 0 22 19.22"><defs><style>.cls-1{fill:#2daa9d;}</style></defs><g id="Layer_2" data-name="Layer 2"><g id="Foreground"><path class="cls-1" d="M20.17,0H1.83A1.83,1.83,0,0,0,0,1.83V13.75a1.83,1.83,0,0,0,1.83,1.84H14.7l3.63,3.63V15.59h1.84A1.83,1.83,0,0,0,22,13.75V1.83A1.83,1.83,0,0,0,20.17,0ZM11.92,7.8A.92.92,0,1,1,11,6.88.92.92,0,0,1,11.92,7.8Zm3.66,0a.92.92,0,1,1-.91-.92A.91.91,0,0,1,15.58,7.8Zm-7.24,0a.92.92,0,1,1-.92-.92A.92.92,0,0,1,8.34,7.8Z"/></g></g></svg>