<svg xmlns="http://www.w3.org/2000/svg" viewBox="0 0 19 16.73"><g id="Layer_2" data-name="Layer 2"><g id="Layer_1-2" data-name="Layer 1"><path d="M17,0H2A2,2,0,0,0,0,2v9.75a2,2,0,0,0,2,2H12.32l2.83,2.83a.47.47,0,0,0,.35.15.65.65,0,0,0,.19,0,.5.5,0,0,0,.31-.46V13.75h1a2,2,0,0,0,2-2V2A2,2,0,0,0,17,0Zm1,11.75a1,1,0,0,1-1,1H15.5a.5.5,0,0,0-.5.5V15L12.88,12.9a.51.51,0,0,0-.35-.15H2a1,1,0,0,1-1-1V2A1,1,0,0,1,2,1H17a1,1,0,0,1,1,1ZM10.4,8.16a.91.91,0,1,1-.91-.91A.9.9,0,0,1,10.4,8.16Zm3.61,0a.91.91,0,0,1-1.81,0,.91.91,0,1,1,1.81,0Zm-7.14,0A.91.91,0,1,1,6,7.25.9.9,0,0,1,6.87,8.16Z"/></g></g></svg>