<?xml version="1.0" encoding="UTF-8"?><svg id="Layer_2" xmlns="http://www.w3.org/2000/svg" viewBox="0 0 45.07 39.75"><defs><style>.cls-1{fill:#fff;}.cls-2{fill:none;stroke:#fff;stroke-linecap:round;stroke-linejoin:round;stroke-width:3px;}</style></defs><g id="FG"><g><path class="cls-2" d="M40.06,1.5H5c-1.94,0-3.5,1.57-3.5,3.51V27.8c0,1.94,1.57,3.51,3.5,3.51H29.61l6.95,6.95v-6.95h3.51c1.94,0,3.51-1.57,3.51-3.51V5.01c0-1.94-1.57-3.51-3.51-3.51Z"/><g><path class="cls-1" d="M24.63,19.4c0,1.17-.94,2.11-2.11,2.11s-2.11-.95-2.11-2.11,.94-2.11,2.11-2.11,2.11,.95,2.11,2.11Z"/><path class="cls-1" d="M33.07,19.4c0,1.17-.94,2.11-2.11,2.11s-2.11-.95-2.11-2.11,.94-2.11,2.11-2.11,2.11,.95,2.11,2.11Z"/><path class="cls-1" d="M16.38,19.4c0,1.17-.94,2.11-2.11,2.11s-2.11-.95-2.11-2.11,.94-2.11,2.11-2.11,2.11,.95,2.11,2.11Z"/></g></g></g></svg>