<?xml version="1.0" encoding="UTF-8"?><svg id="Layer_2" xmlns="http://www.w3.org/2000/svg" viewBox="0 0 36.88 47.75"><defs><style>.cls-1{fill:#29abe2;stroke:#29abe2;stroke-miterlimit:10;stroke-width:2px;}</style></defs><g id="Layer_1-2"><g id="Layer_2-2"><g id="Foreground"><path class="cls-1" d="M32.68,46.75H4.24c-1.79,0-3.24-1.45-3.24-3.24h0V4.24c0-1.79,1.45-3.24,3.24-3.24H22.35c.8,.11,1.54,.49,2.11,1.06l10.38,10.4c.56,.56,.93,1.29,1.05,2.08h0v28.97c0,1.77-1.43,3.22-3.2,3.24ZM4.24,3.4c-.46,0-.84,.37-.84,.84V43.51c0,.46,.37,.84,.84,.84h28.44c.46,0,.83-.37,.83-.83h0V16.96h-10.3c-1.79,0-3.24-1.45-3.24-3.24V3.4H4.24Zm18.11,.12V13.73c0,.46,.38,.82,.84,.83h10.21c-.06-.14-.15-.27-.26-.37L22.78,3.78c-.13-.11-.27-.2-.43-.26Z"/></g></g></g></svg>