<svg xmlns="http://www.w3.org/2000/svg" viewBox="0 0 107.65 28"><defs><style>.cls-1{fill:#fff;}</style></defs><g id="Layer_2" data-name="Layer 2"><g id="Foreground"><path class="cls-1" d="M0,17V13.64a21,21,0,0,1,2.69-.5l.68-.07.07.12,0,0L3,13.74A20,20,0,0,1,0,17ZM3.33,9.74h0l.07-.12L3,9.08A22.17,22.17,0,0,0,0,5.85V9.19a17.65,17.65,0,0,0,2.69.49Zm29-8.09V21.18L0,22.83V19a20.28,20.28,0,0,0,5-5.7l-1-1.66a15.92,15.92,0,0,0-4,.39v-1.3a16,16,0,0,0,4.05.4L5,9.51A19.9,19.9,0,0,0,0,3.78V0ZM5.49,9.23H7.4A20.13,20.13,0,0,0,9.9,2H8.29a23,23,0,0,1-1.5,5.27l-.27.63H6.38l0,0c-.12-.29-.26-.58-.26-.58A21.88,21.88,0,0,1,4.61,2H3A19.94,19.94,0,0,0,5.49,9.23ZM9.9,20.79A20.13,20.13,0,0,0,7.4,13.6H5.49A20,20,0,0,0,3,20.79H4.61A21.67,21.67,0,0,1,6.1,15.52l.27-.59v0h.14l.27.63a23,23,0,0,1,1.5,5.27Zm6.38-7.72a20,20,0,0,0-7.49-1.4l-.94,1.66a20,20,0,0,0,5,5.73l.8-1.39a21.64,21.64,0,0,1-3.84-3.92s-.18-.27-.38-.52l0,0,.07-.12.69.08a23.24,23.24,0,0,1,5.32,1.32Zm0-3.29-.79-1.4a21.73,21.73,0,0,1-5.33,1.31l-.64.06h0L9.4,9.64l.42-.55a23.18,23.18,0,0,1,3.84-3.91l-.79-1.4a20.14,20.14,0,0,0-5,5.73l.94,1.66A19.94,19.94,0,0,0,16.28,9.78Z"/><path class="cls-1" d="M40.24,24.24c-2.63-4.06-4-9.09-4.63-13.51h4a54.24,54.24,0,0,0,2.4,9.66l.31.78h.07c.14-.35.29-.78.29-.78a51.07,51.07,0,0,0,2.41-9.66H49.2c-.7,4.42-2,9.45-4.65,13.51Z"/><path class="cls-1" d="M49.57,24.44a2,2,0,0,1-2-2,2,2,0,1,1,4.09,0,2,2,0,0,1-2,2"/><path class="cls-1" d="M65,16.79v7.49H63.46l-.63-.79a8.94,8.94,0,0,1-4.13,1c-4,0-6.66-2.58-6.66-7s2.69-6.95,6.66-6.95c3,0,5.46,1.45,6.1,4.49H60.6a1.77,1.77,0,0,0-1.9-1.51c-1.64,0-2.61,1.38-2.61,4s1,4,2.61,4A4.67,4.67,0,0,0,61,20.82V19.13H59V16.79Z"/><path class="cls-1" d="M73.32,14.08v3.16A9.25,9.25,0,0,0,71.5,17,1.39,1.39,0,0,0,70,18.53v5.71h-3.8V14h1.44l1.23,1.59a3.38,3.38,0,0,1,2.91-1.72,6.38,6.38,0,0,1,1.59.21"/><path class="cls-1" d="M84.77,19.15c0,3.33-2.13,5.29-5.42,5.29s-5.44-2-5.44-5.29,2.15-5.28,5.44-5.28,5.42,2,5.42,5.28m-3.79,0c0-1.08-.25-2.59-1.63-2.59s-1.64,1.51-1.64,2.59.25,2.6,1.64,2.6S81,20.24,81,19.15"/><path class="cls-1" d="M85.68,20.08v-6h3.8v5.67c0,1.48.36,2,1.27,2A1.61,1.61,0,0,0,92.19,20V14.06H96V24.28H94.64l-1.23-1.49a4.59,4.59,0,0,1-3.62,1.65c-2.83,0-4.11-1.94-4.11-4.36"/><path class="cls-1" d="M107.65,19.15c0,2.66-1.16,5.29-4.18,5.29a3.81,3.81,0,0,1-2.48-.83h-.07V28h-3.8V14h1.34l1.27,1.57a4,4,0,0,1,3.47-1.7c3.12,0,4.45,2.46,4.45,5.28m-3.79,0c0-1-.18-2.59-1.47-2.59s-1.49,1.63-1.49,2.59.19,2.6,1.49,2.6,1.47-1.63,1.47-2.6"/></g></g></svg>