<?xml version="1.0" encoding="utf-8"?>
<!-- Generator: Adobe Illustrator 26.0.1, SVG Export Plug-In . SVG Version: 6.00 Build 0)  -->
<svg version="1.1" id="Layer_1" xmlns="http://www.w3.org/2000/svg" xmlns:xlink="http://www.w3.org/1999/xlink" x="0px" y="0px"
	 viewBox="0 0 31 31" style="enable-background:new 0 0 31 31;" xml:space="preserve">
<style type="text/css">
	.st0{fill:#2daa9d;}
	.st1{fill:#FFFFFF;}
</style>
<g transform="translate(-69 -1016)">
	<circle class="st0" cx="84.5" cy="1031.5" r="15.5"/>
	<g transform="translate(97.48 1018.52) rotate(90)">
		<path class="st1" d="M26,13c0-7.2-5.8-13-13-13C5.8,0,0,5.8,0,13s5.8,13,13,13l0,0C20.1,26,26,20.1,26,13z M1.3,13
			C1.3,6.5,6.5,1.3,13,1.3c6.5,0,11.7,5.2,11.7,11.7S19.4,24.7,13,24.7c0,0,0,0,0,0C6.5,24.7,1.3,19.4,1.3,13z"/>
		<path class="st1" d="M13.4,19.1l3.6-3.6c0.2-0.3,0.2-0.7,0-0.9c-0.2-0.2-0.6-0.2-0.9,0l-2.5,2.5V7.3c0-0.4-0.3-0.7-0.6-0.7
			c-0.4,0-0.7,0.3-0.7,0.6c0,0,0,0,0,0.1V17l-2.5-2.5c-0.3-0.2-0.7-0.2-0.9,0c-0.2,0.2-0.2,0.6,0,0.9l3.6,3.6
			C12.8,19.3,13.2,19.3,13.4,19.1L13.4,19.1z"/>
	</g>
</g>
</svg>
