<svg xmlns="http://www.w3.org/2000/svg" viewBox="0 0 14.5 19"><g id="Layer_2" data-name="Layer 2"><g id="Layer_1-2" data-name="Layer 1"><path d="M13.16,19H1.34A1.34,1.34,0,0,1,0,17.66V1.34A1.34,1.34,0,0,1,1.34,0L8.88,0a1.47,1.47,0,0,1,.87.43l4.3,4.31a1.58,1.58,0,0,1,.44.86h0v12A1.34,1.34,0,0,1,13.16,19ZM1.34,1A.34.34,0,0,0,1,1.34V17.66a.34.34,0,0,0,.34.34H13.16a.34.34,0,0,0,.34-.34v-11H9.22A1.34,1.34,0,0,1,7.88,5.28V1Zm7.54.05V5.28a.34.34,0,0,0,.34.34h4.23a.39.39,0,0,0-.11-.15L9,1.16A.42.42,0,0,0,8.88,1.05Z"/></g></g></svg>