<svg xmlns="http://www.w3.org/2000/svg" viewBox="0 0 37.63 49.29"><defs><style>.cls-1{fill:#29abe2;}</style></defs><g id="Layer_2" data-name="Layer 2"><g id="Foreground"><path class="cls-1" d="M34.13,49.29H3.49A3.49,3.49,0,0,1,0,45.8V3.49A3.49,3.49,0,0,1,3.49,0L23,0a4,4,0,0,1,2.27,1.14L36.45,12.35a4,4,0,0,1,1.13,2.24h0v.29c0,.1,0,.21,0,.31V45.8A3.49,3.49,0,0,1,34.13,49.29ZM3.49,2.59a.9.9,0,0,0-.9.9V45.8a.9.9,0,0,0,.9.9H34.13a.89.89,0,0,0,.89-.9V17.19H23.92a3.49,3.49,0,0,1-3.49-3.49V2.59ZM23,2.72v11a.91.91,0,0,0,.9.89h11a1.26,1.26,0,0,0-.28-.4L23.46,3A1.6,1.6,0,0,0,23,2.72Z"/></g></g></svg>