<svg xmlns="http://www.w3.org/2000/svg" viewBox="0 0 15 17"><defs><style>.cls-1{fill:#29abe2;}</style></defs><g id="Layer_2" data-name="Layer 2"><g id="Layer_3" data-name="Layer 3"><path class="cls-1" d="M7.5,1.5a3,3,0,1,1-3,3,3,3,0,0,1,3-3m2.8,9a3.21,3.21,0,0,1,3.2,3.2V15a.5.5,0,0,1-.5.5H2a.5.5,0,0,1-.5-.5V13.7a3.21,3.21,0,0,1,3.2-3.2H5a6.45,6.45,0,0,0,5,0h.31M7.5.5a4,4,0,1,0,4,4,4,4,0,0,0-4-4Zm2.8,9H9.78a5.45,5.45,0,0,1-4.56,0H4.7A4.2,4.2,0,0,0,.5,13.7V15A1.5,1.5,0,0,0,2,16.5H13A1.5,1.5,0,0,0,14.5,15V13.7a4.2,4.2,0,0,0-4.2-4.2Z"/></g></g></svg>