<?xml version="1.0" encoding="UTF-8"?><svg id="Layer_2" xmlns="http://www.w3.org/2000/svg" viewBox="0 0 380.78 589.61"><defs><style>.cls-1{fill:#fff;}.cls-2{fill:gray;}</style></defs><g id="Layer_1-2"><g><path class="cls-2" d="M190.4,0C152.74,0,115.93,11.17,84.62,32.09,53.31,53.01,28.91,82.75,14.5,117.54,.08,152.33-3.69,190.61,3.66,227.55c7.34,36.93,25.48,70.86,52.1,97.48,26.63,26.63,60.56,44.76,97.49,52.11,36.93,7.35,75.21,3.58,110-10.83,34.79-14.41,64.52-38.82,85.45-70.12,20.92-31.31,32.09-68.12,32.09-105.78-.05-50.48-20.13-98.88-55.83-134.57C289.26,20.14,240.87,.06,190.4,0h0Zm0,366.73c-34.88,0-68.96-10.34-97.96-29.71s-51.6-46.91-64.94-79.13c-13.35-32.22-16.84-67.67-10.04-101.88,6.8-34.21,23.59-65.62,48.25-90.28,24.66-24.66,56.07-41.45,90.28-48.26,34.2-6.8,69.66-3.31,101.88,10.03,32.22,13.34,59.76,35.94,79.13,64.94s29.72,63.09,29.72,97.96c-.05,46.75-18.64,91.56-51.7,124.62-33.05,33.05-77.87,51.65-124.62,51.7h0Zm87.96-182.39L140.17,103.51c-2.18-1.27-4.87-1.28-7.05-.03-2.19,1.25-3.54,3.58-3.54,6.1v161.64c0,2.52,1.35,4.85,3.54,6.11s4.88,1.24,7.05-.04l138.19-80.82c2.16-1.26,3.48-3.57,3.48-6.07s-1.32-4.81-3.48-6.07h0Zm-137.71,74.63V121.84l117.22,68.55-117.22,68.57Z"/><rect class="cls-1" x="21.73" y="322.11" width="341.08" height="267.5"/><rect class="cls-1" x="100.79" y="218.29" width="176.05" height="85.52"/><path class="cls-2" d="M171.11,223.19c8.75,0,15.39,7.65,16.2,18.67l8.46,115.47c.68,8.07,12.53,7.82,12.89-.29,.16-5.64,2.36-9.27,5.64-11.84,3.3-2.59,7.91-3.91,12.54-3.5,9.27,.82,18.67,7.17,18.67,25.44,0,8.66,12.93,8.66,12.93,0,0-4.57,1.75-7.36,4.79-9.66,3.02-2.27,7.53-3.63,12.07-3.54,4.56,.13,8.98,1.69,12.06,4.41,3.08,2.76,5.18,6.58,5.18,13,.55,8.06,12.38,8.06,12.89,0,0-4.12,1.43-6.07,3.5-7.42,2.07-1.36,5.28-1.94,8.82-.97,7.09,1.97,15.75,9.92,15.75,29.46,0,63.28-12.25,93.27-24.89,114.27-6.32,10.5-12.96,18.8-18.47,28.1-4.5,7.62-7,17.02-8.62,27.15-43.04,6.26-80.92,5.74-127.33-.06-3.11-13.89-3.08-21.58-23.7-45.63-11.5-13.41-22.58-31.5-27.68-48.74-5.05-17.27-4.3-32.8,6.04-44.23,8.07-8.91,10.83-21.58,15.62-31.37,2.39-4.9,5.12-8.98,8.29-11.67,2.23-1.89,5.57-2.33,8.78-2.99l-.12,42.04c-.25,3.73,2.69,6.9,6.41,6.9,3.76,.03,6.71-3.14,6.48-6.87l.62-177.94c.03-10.47,7.38-18.19,16.13-18.19h.04s0,0,0,0Zm0-12.96c-16.33,0-29.07,14.28-29.13,31.11l-.36,123.02c-6.55,.81-12.87,2.33-17.18,5.97-5.28,4.44-8.79,10.14-11.6,15.88-5.59,11.46-9.2,23.55-13.57,28.38-14.13,15.59-14.62,36.82-8.82,56.55,5.8,19.74,17.69,38.88,30.2,53.5,22.36,26.09,16.92,25.44,22.24,45.34,.68,2.53,2.81,4.41,5.45,4.73,50.62,6.61,91.52,7.26,138.71,.04,3.01-.46,5.28-2.95,5.45-6,.71-11.21,3.95-19.08,8.85-27.35,4.9-8.24,11.57-16.76,18.38-28.07,13.58-22.55,26.77-55.93,26.77-120.91,0-23.62-11.87-38.18-25.28-41.91-6.68-1.89-13.71-1.1-19.31,2.56-1.36,.91-1.17,3.21-2.27,4.41-1.52-2.75-1.46-6.78-3.66-8.75-5.74-5.12-13.09-7.52-20.32-7.71-7.21-.19-14.43,1.79-20.2,6.16-1.32,1.02-1.17,3.31-2.3,4.57-5.25-12.73-14.11-21.93-25.19-22.9-7.45-.65-14.84,1.52-20.83,5.95l-6.9-93.91c-1.2-16.23-12.77-30.66-29.14-30.66h.02Z"/></g></g></svg>