<svg xmlns="http://www.w3.org/2000/svg" viewBox="0 0 23 20.93"><defs><style>.cls-1{fill:none;stroke:#000;stroke-miterlimit:10;}.cls-1,.cls-2{opacity:0.5;}</style></defs><g id="Layer_2" data-name="Layer 2"><g id="Base_UI" data-name="Base UI"><path class="cls-1" d="M20.67.5H2.33A1.83,1.83,0,0,0,.5,2.33V14.25a1.83,1.83,0,0,0,1.83,1.84H15.2l3.63,3.63V16.09h1.84a1.83,1.83,0,0,0,1.83-1.84V2.33A1.83,1.83,0,0,0,20.67.5Z"/><path class="cls-2" d="M12.59,9.86a1.1,1.1,0,1,1-1.1-1.1A1.1,1.1,0,0,1,12.59,9.86Z"/><path class="cls-2" d="M17,9.86a1.11,1.11,0,1,1-1.1-1.1A1.1,1.1,0,0,1,17,9.86Z"/><path class="cls-2" d="M8.28,9.86a1.11,1.11,0,1,1-1.1-1.1A1.1,1.1,0,0,1,8.28,9.86Z"/></g></g></svg>