<?xml version="1.0" encoding="UTF-8"?>
<svg id="Layer_2" data-name="Layer 2" xmlns="http://www.w3.org/2000/svg" viewBox="0 0 16.1 17">
  <defs>
    <style>
      .cls-1 {
        opacity: .9;
      }

      .cls-2 {
        fill: none;
        stroke: #2daa9d;
        stroke-linecap: round;
        stroke-linejoin: round;
      }
    </style>
  </defs>
  <g id="Layer_7" data-name="Layer 7">
    <g class="cls-1">
      <path class="cls-2" d="M15.24,16.5c-.76-.06-1.5-.28-2.13-.63-1.48,.84-3.64,.85-5.16,0-1.48,.84-3.64,.85-5.16,0-.63,.36-1.36,.57-2.13,.63"/>
      <path class="cls-2" d="M14.92,7.62l-.14-.1-1.2-.21v-2.48c0-.8-.65-1.45-1.45-1.45h-1.55V1.79c0-.75-.43-1.29-1.02-1.29h-2.95c-.59,0-1.02,.54-1.02,1.29v1.58h-1.55c-.8,0-1.45,.65-1.45,1.45v2.34l-.35,.05-.61,.18c-.54,.17-.94,.61-1.08,1.16-.13,.52,0,1.06,.36,1.45l2.09,3.33c.16,.26,.36,.53,.59,.81l.14,.17,.21,.07c.43,.14,.89,.2,1.34,.2,.92,0,1.82-.27,2.47-.79,.11-.09,.26-.11,.33-.06,1.06,.88,2.84,1.1,4.22,.51l.18-.08,.12-.15c.18-.22,.35-.45,.5-.69l2.09-3.33c.29-.33,.44-.76,.4-1.2-.04-.48-.29-.91-.68-1.19Z"/>
      <polyline class="cls-2" points="13.59 7.29 8.01 6.3 2.48 7.14"/>
      <line class="cls-2" x1="5.29" y1="3.37" x2="10.69" y2="3.37"/>
      <line class="cls-2" x1="8.04" y1="6.37" x2="8.04" y2="13.67"/>
    </g>
  </g>
</svg>