<svg xmlns="http://www.w3.org/2000/svg" viewBox="0 0 12.84 14"><defs><style>.cls-1{fill:#ffffff;}</style></defs><g id="Layer_2" data-name="Layer 2"><g id="FG"><path class="cls-1" d="M12.05,12.77a.34.34,0,0,1,.29.34v.55A.34.34,0,0,1,12,14a3.92,3.92,0,0,1-1.65-.54,4,4,0,0,1-4,0,4,4,0,0,1-4,0A3.75,3.75,0,0,1,.68,14a.32.32,0,0,1-.34-.33V13.1a.33.33,0,0,1,.28-.33,2.4,2.4,0,0,0,1.2-.46.79.79,0,0,1,1-.05,2.61,2.61,0,0,0,3,0,.77.77,0,0,1,1,0,2.6,2.6,0,0,0,3,0,.81.81,0,0,1,1,0,2.4,2.4,0,0,0,1.21.48Zm.21-6.72L12.14,6l-1-.18V3.68A1.25,1.25,0,0,0,9.88,2.44H8.56V1.1C8.56.46,8.2,0,7.7,0H5.19c-.5,0-.87.46-.87,1.1V2.44H3A1.24,1.24,0,0,0,1.77,3.68v2l-.3,0L1,5.87a1.34,1.34,0,0,0-.92,1,1.39,1.39,0,0,0,.3,1.24l1.78,2.83a6.56,6.56,0,0,0,.5.69l.13.15.18.05A3.72,3.72,0,0,0,4.07,12a3.46,3.46,0,0,0,2.1-.67.24.24,0,0,1,.28-.05A3.66,3.66,0,0,0,10,11.7l.15-.06.1-.13a4.94,4.94,0,0,0,.43-.59L12.5,8.09a1.37,1.37,0,0,0,.34-1A1.43,1.43,0,0,0,12.26,6.05ZM5.64,1.31H7.25V2.44H5.64ZM3.08,3.75H9.8v1.8L6.43,5l-3.35.51Zm.43,6.86a4.07,4.07,0,0,1-.28-.38L1.42,7.34V7.17l0,0L1.72,7l4-.62v3.67a1.91,1.91,0,0,0-.41.24A2.29,2.29,0,0,1,3.51,10.61Zm6.1-.39a3.88,3.88,0,0,1-.23.33,2.32,2.32,0,0,1-2.09-.29l-.21-.15V6.4l4.45.79Z"/></g></g></svg>