<?xml version="1.0" encoding="UTF-8"?><svg xmlns="http://www.w3.org/2000/svg" viewBox="0 0 49.58 34.54"><defs><style>.d{fill:#fff;}.e{fill:#15a99c;fill-rule:evenodd;}</style></defs><g id="a"/><g id="b"><g id="c"><g><path class="e" d="M5.11,14.74h.07l.1-.17-.64-.83c-1.28-1.67-2.88-3.34-4.65-4.89v5.05c1.44,.36,2.83,.61,4.13,.74,0,0,.49,.04,.98,.1Z"/><path class="e" d="M13.5,16.89l-1.45-2.51c1.56-2.86,4.01-5.61,7.7-8.66l1.22,2.11c-2.28,1.82-4.32,3.86-5.9,5.91l-.64,.83,.1,.18h.07c.49-.06,.98-.1,.98-.1,2.48-.24,5.24-.9,8.18-1.97l1.22,2.11c-4.57,1.58-8.19,2.24-11.49,2.09Zm10.26,4.99c-2.75-1.01-5.57-1.69-8.17-1.99l-1.05-.12-.1,.18,.04,.06c.3,.38,.58,.78,.58,.78,1.47,1.99,3.46,3.98,5.89,5.93l-1.22,2.11c-3.69-3.06-6.14-5.82-7.69-8.67l1.45-2.5c3.3-.14,6.92,.53,11.49,2.11l-1.22,2.11Zm-11.04,9.57c-.48-2.85-1.27-5.61-2.3-7.98l-.42-.96h-.21l-.03,.07c-.19,.44-.4,.89-.4,.89-1.02,2.25-1.79,4.93-2.3,7.98h-2.47c.86-4.67,2.08-8.13,3.83-10.88h2.93c1.75,2.74,2.97,6.21,3.84,10.88h-2.47ZM4.6,3.08h2.47c.51,3.05,1.28,5.73,2.3,7.98,0,0,.21,.44,.4,.89l.03,.07h.21l.42-.96c1.03-2.37,1.82-5.12,2.3-7.98h2.47c-.86,4.67-2.09,8.13-3.84,10.88h-2.93c-1.75-2.75-2.97-6.21-3.83-10.88ZM0,0V5.71c3.68,3.05,6.13,5.81,7.67,8.67l-1.45,2.5c-1.92,.08-3.96-.12-6.22-.61v1.98c2.26-.48,4.3-.68,6.22-.6l1.45,2.51c-1.55,2.84-3.99,5.59-7.67,8.63v5.75l49.58-2.5V2.5L0,0Z"/><path class="e" d="M4.65,20.79s.29-.4,.58-.78l.04-.06-.1-.18-1.05,.12c-1.33,.15-2.72,.4-4.12,.75v5.02c1.87-1.61,3.43-3.24,4.65-4.87Z"/><path class="d" d="M15.6,14.66s-.5,.04-.98,.09h-.07l-.1-.17,.64-.83c1.58-2.05,3.62-4.09,5.9-5.91l-1.22-2.11c-3.69,3.05-6.15,5.81-7.7,8.66l1.45,2.51c3.3,.14,6.92-.52,11.49-2.09l-1.22-2.11c-2.94,1.07-5.69,1.74-8.18,1.97Z"/><path class="d" d="M7.67,20.16l-1.45-2.51c-1.92-.08-3.96,.12-6.22,.6v2.38c1.41-.34,2.8-.6,4.12-.75l1.05-.12,.1,.18-.04,.06c-.3,.39-.58,.78-.58,.78-1.22,1.63-2.78,3.26-4.65,4.87v3.13c3.67-3.04,6.12-5.78,7.67-8.63Z"/><path class="d" d="M13.5,17.66l-1.45,2.5c1.55,2.86,4,5.62,7.69,8.67l1.22-2.11c-2.44-1.95-4.42-3.94-5.89-5.93,0,0-.29-.4-.58-.78l-.04-.06,.1-.18,1.05,.12c2.6,.29,5.42,.98,8.17,1.99l1.22-2.11c-4.57-1.58-8.19-2.25-11.49-2.11Z"/><path class="d" d="M6.22,16.88l1.45-2.5C6.13,11.52,3.68,8.77,0,5.71v3.14c1.78,1.55,3.37,3.21,4.65,4.89l.64,.83-.1,.18h-.07c-.49-.06-.98-.1-.98-.1C2.83,14.52,1.44,14.27,0,13.91v2.37c2.26,.49,4.3,.69,6.22,.61Z"/><path class="d" d="M8.43,20.57c-1.75,2.75-2.97,6.21-3.83,10.88h2.47c.51-3.05,1.28-5.73,2.3-7.98,0,0,.21-.44,.4-.89l.03-.07h.21l.42,.96c1.03,2.37,1.82,5.12,2.3,7.98h2.47c-.86-4.67-2.09-8.13-3.84-10.88h-2.93Z"/><path class="d" d="M11.36,13.96c1.75-2.74,2.97-6.21,3.84-10.88h-2.47c-.48,2.85-1.27,5.61-2.3,7.98l-.42,.96h-.21l-.03-.07c-.19-.44-.4-.89-.4-.89-1.02-2.25-1.79-4.93-2.3-7.98h-2.47c.86,4.67,2.08,8.13,3.83,10.88h2.93Z"/></g></g></g></svg>