<svg xmlns="http://www.w3.org/2000/svg" viewBox="0 0 23 20.93"><defs><style>.cls-1{fill:none;stroke:#29abe2;stroke-miterlimit:10;}.cls-2{fill:#29abe2;}</style></defs><g id="Layer_2" data-name="Layer 2"><g id="FG"><path class="cls-1" d="M20.67.5H2.33A1.83,1.83,0,0,0,.5,2.33V14.25a1.83,1.83,0,0,0,1.83,1.84H15.2l3.63,3.63V16.09h1.84a1.83,1.83,0,0,0,1.83-1.84V2.33A1.83,1.83,0,0,0,20.67.5Z"/><path class="cls-2" d="M12.42,10.3a.92.92,0,1,1-.92-.92A.92.92,0,0,1,12.42,10.3Z"/><path class="cls-2" d="M16.08,10.3a.92.92,0,1,1-.91-.92A.91.91,0,0,1,16.08,10.3Z"/><path class="cls-2" d="M8.84,10.3a.92.92,0,1,1-.92-.92A.92.92,0,0,1,8.84,10.3Z"/></g></g></svg>