<svg width="24" height="28" viewBox="0 0 24 28" fill="none" xmlns="http://www.w3.org/2000/svg">
<path d="M1.80403 25.2311C1.31007 25.2311 0.885906 25.035 0.531543 24.6428C0.177181 24.2505 0 23.8006 0 23.293V4.29172C0 3.76102 0.155705 3.30532 0.467114 2.9246C0.778523 2.54388 1.08456 2.35352 1.38523 2.35352H7.89262C8 1.68438 8.28993 1.12485 8.76242 0.674907C9.2349 0.224969 9.79329 0 10.4376 0C11.0604 0 11.6081 0.224969 12.0805 0.674907C12.553 1.12485 12.8537 1.68438 12.9825 2.35352H19.4899C19.9839 2.35352 20.4081 2.54388 20.7624 2.9246C21.1168 3.30532 21.294 3.76102 21.294 4.29172V12.4598H19.8765V4.29172C19.8765 4.17635 19.8389 4.07252 19.7638 3.98022C19.6886 3.88793 19.5973 3.84178 19.4899 3.84178H16.043V7.68356H5.28322V3.84178H1.80403C1.69664 3.84178 1.60537 3.88793 1.5302 3.98022C1.45503 4.07252 1.41745 4.17635 1.41745 4.29172V23.293C1.41745 23.4083 1.45503 23.5064 1.5302 23.5871C1.60537 23.6679 1.69664 23.7083 1.80403 23.7083H9.50336V25.2311H1.80403ZM22.9691 28L19.3289 24.089C18.8993 24.4582 18.4322 24.712 17.9275 24.8504C17.4228 24.9889 16.9128 25.0581 16.3973 25.0581C15.0658 25.0581 13.9275 24.5562 12.9825 23.5525C12.0376 22.5488 11.5651 21.3201 11.5651 19.8665C11.5651 18.4129 12.0376 17.1842 12.9825 16.1805C13.9275 15.1768 15.0765 14.6749 16.4295 14.6749C17.7611 14.6749 18.8993 15.1825 19.8443 16.1978C20.7893 17.213 21.2617 18.4359 21.2617 19.8665C21.2617 20.4203 21.1919 20.9798 21.0523 21.5451C20.9128 22.1104 20.6711 22.6007 20.3275 23.0161L24 26.9271L22.9691 28ZM16.3973 23.5352C17.3638 23.5352 18.1799 23.1834 18.8456 22.4796C19.5114 21.7759 19.8443 20.9048 19.8443 19.8665C19.8443 18.8513 19.5114 17.9802 18.8456 17.2534C18.1799 16.5266 17.3745 16.1632 16.4295 16.1632C15.4631 16.1632 14.647 16.5208 13.9812 17.2361C13.3154 17.9514 12.9825 18.8282 12.9825 19.8665C12.9825 20.9048 13.3154 21.7759 13.9812 22.4796C14.647 23.1834 15.4523 23.5352 16.3973 23.5352ZM10.8564 3.87639C11.1785 3.87639 11.4523 3.75525 11.6779 3.51298C11.9034 3.2707 12.0161 2.98805 12.0161 2.66502C12.0161 2.31891 11.9034 2.02472 11.6779 1.78245C11.4523 1.54017 11.1785 1.41904 10.8564 1.41904C10.5342 1.41904 10.2658 1.54017 10.051 1.78245C9.83624 2.02472 9.72886 2.30738 9.72886 2.63041C9.72886 2.99959 9.83624 3.29955 10.051 3.53028C10.2658 3.76102 10.5342 3.87639 10.8564 3.87639Z" fill="#808080"/>
</svg>
