<svg width="51" height="26" viewBox="0 0 51 26" fill="none" xmlns="http://www.w3.org/2000/svg">
<path d="M50.1962 15.1737C50.2296 15.1362 50.2517 15.09 50.2597 15.0403C50.2678 14.9907 50.2615 14.9398 50.2417 14.8936C50.2218 14.8479 50.1892 14.8091 50.1477 14.7817C50.1062 14.7543 50.0577 14.7396 50.0081 14.7394H17.8717L16.5546 13.2747C16.5306 13.2488 16.5014 13.2283 16.469 13.2145C16.4366 13.2007 16.4016 13.1938 16.3664 13.1944H15.9184V10.0067C15.9184 9.93858 15.8914 9.87321 15.8434 9.82502C15.7954 9.77683 15.7303 9.74975 15.6624 9.74975H15.1434V1.25696C15.1434 1.18881 15.1164 1.12345 15.0684 1.07526C15.0204 1.02707 14.9553 1 14.8874 1H11.9626C11.8947 1 11.8296 1.02707 11.7816 1.07526C11.7335 1.12345 11.7066 1.18881 11.7066 1.25696V5.15517H5.69057C5.62213 5.15516 5.55641 5.18204 5.50748 5.23007C5.45855 5.27811 5.43031 5.34346 5.4288 5.41214V13.1951H1.43776C1.39232 13.1947 1.34764 13.2068 1.30851 13.23C1.26939 13.2532 1.23729 13.2866 1.21568 13.3268C1.19221 13.3677 1.17985 13.4141 1.17985 13.4613C1.17985 13.5086 1.19221 13.555 1.21568 13.5959L6.83105 21.9904C6.56104 22.1054 6.32779 22.2927 6.15686 22.5319C5.98594 22.7711 5.88395 23.053 5.86209 23.3466C5.78556 23.6519 5.60966 23.9228 5.3623 24.1164C5.11494 24.3099 4.81028 24.415 4.49665 24.415C4.18301 24.415 3.87834 24.3099 3.63098 24.1164C3.38363 23.9228 3.20774 23.6519 3.1312 23.3466C3.07805 22.8944 2.85374 22.48 2.50469 22.1892C2.15564 21.8984 1.70858 21.7534 1.256 21.7842C1.18811 21.7842 1.12299 21.8113 1.07498 21.8595C1.02697 21.9077 1 21.973 1 22.0412C1 22.1093 1.02697 22.1747 1.07498 22.2229C1.12299 22.2711 1.18811 22.2981 1.256 22.2981C1.57568 22.2709 1.89379 22.366 2.14651 22.5644C2.39922 22.7628 2.56786 23.0498 2.61856 23.3678C2.68527 23.82 2.91167 24.2331 3.25648 24.5317C3.60129 24.8304 4.04154 24.9946 4.49696 24.9946C4.95238 24.9946 5.39264 24.8304 5.73745 24.5317C6.08226 24.2331 6.30866 23.82 6.37537 23.3678C6.45223 23.062 6.62856 22.7907 6.87642 22.5968C7.12428 22.403 7.4295 22.2978 7.74369 22.2978C8.05789 22.2978 8.36309 22.403 8.61095 22.5968C8.85881 22.7907 9.03515 23.062 9.11201 23.3678C9.17724 23.8204 9.40271 24.2342 9.74716 24.5336C10.0916 24.8329 10.5319 24.9977 10.9875 24.9977C11.4431 24.9977 11.8835 24.8329 12.2279 24.5336C12.5724 24.2342 12.7978 23.8204 12.8631 23.3678C12.9405 23.0618 13.1173 22.7904 13.3656 22.5966C13.6139 22.4027 13.9194 22.2975 14.2339 22.2975C14.5485 22.2975 14.854 22.4027 15.1023 22.5966C15.3506 22.7904 15.5274 23.0618 15.6048 23.3678C15.6716 23.8214 15.8987 24.2359 16.2446 24.5355C16.5904 24.8352 17.0321 25 17.489 25C17.9459 25 18.3875 24.8352 18.7334 24.5355C19.0793 24.2359 19.3063 23.8214 19.3731 23.3678C19.4479 23.0617 19.6228 22.7896 19.8698 22.595C20.1168 22.4005 20.4217 22.2948 20.7357 22.2948C21.0497 22.2948 21.3546 22.4005 21.6016 22.595C21.8487 22.7896 22.0235 23.0617 22.0983 23.3678C22.182 23.8055 22.415 24.2003 22.7573 24.4842C23.0996 24.7681 23.5298 24.9234 23.9738 24.9234C24.4178 24.9234 24.848 24.7681 25.1903 24.4842C25.5326 24.2003 25.7656 23.8055 25.8493 23.3678C25.924 23.0617 26.0989 22.7896 26.346 22.595C26.593 22.4005 26.8979 22.2948 27.2119 22.2948C27.5259 22.2948 27.8308 22.4005 28.0778 22.595C28.3248 22.7896 28.4997 23.0617 28.5744 23.3678C28.6551 23.8088 28.8872 24.2075 29.2304 24.4946C29.5735 24.7816 30.0061 24.9388 30.4528 24.9388C30.8996 24.9388 31.3321 24.7816 31.6753 24.4946C32.0185 24.2075 32.2506 23.8088 32.3312 23.3678C32.406 23.0617 32.5809 22.7896 32.8279 22.595C33.0749 22.4005 33.3798 22.2948 33.6938 22.2948C34.0078 22.2948 34.3127 22.4005 34.5597 22.595C34.8068 22.7896 34.9816 23.0617 35.0564 23.3678C35.1401 23.8055 35.3731 24.2003 35.7154 24.4842C36.0577 24.7681 36.4879 24.9234 36.9319 24.9234C37.3759 24.9234 37.8061 24.7681 38.1484 24.4842C38.4907 24.2003 38.7237 23.8055 38.8074 23.3678C38.8839 23.0625 39.0598 22.7915 39.3072 22.598C39.5545 22.4044 39.8592 22.2993 40.1729 22.2993C40.4865 22.2993 40.7912 22.4044 41.0385 22.598C41.2859 22.7915 41.4618 23.0625 41.5383 23.3678C41.622 23.8055 41.855 24.2003 42.1973 24.4842C42.5396 24.7681 42.9698 24.9234 43.4138 24.9234C43.8578 24.9234 44.288 24.7681 44.6303 24.4842C44.9726 24.2003 45.2056 23.8055 45.2893 23.3678C45.3636 23.0612 45.5383 22.7886 45.7853 22.5936C46.0324 22.3987 46.3376 22.2927 46.6519 22.2927C46.9662 22.2927 47.2714 22.3987 47.5185 22.5936C47.7655 22.7886 47.9402 23.0612 48.0145 23.3678C48.0676 23.8201 48.292 24.2346 48.6412 24.5254C48.9904 24.8162 49.4376 24.9611 49.8903 24.9301C49.9582 24.9301 50.0233 24.9031 50.0713 24.8549C50.1193 24.8067 50.1463 24.7413 50.1463 24.6732C50.1463 24.605 50.1193 24.5397 50.0713 24.4915C50.0233 24.4433 49.9582 24.4162 49.8903 24.4162C49.571 24.4413 49.2539 24.3453 49.0016 24.1471C48.7493 23.949 48.5803 23.6631 48.5277 23.3459C48.444 22.9082 48.211 22.5135 47.8687 22.2295C47.5264 21.9456 47.0963 21.7903 46.6522 21.7903C46.2082 21.7903 45.778 21.9456 45.4357 22.2295C45.0935 22.5135 44.8604 22.9082 44.7767 23.3459C44.7242 23.6631 44.5551 23.949 44.3028 24.1471C44.0506 24.3453 43.7335 24.4413 43.4141 24.4162C43.1842 24.4245 42.9557 24.3767 42.7482 24.277C42.5407 24.1774 42.3603 24.0287 42.2225 23.8438L50.1962 15.1737ZM12.2269 1.51394H14.6269V3.32689H12.2269V1.51394ZM12.2269 5.41085V3.84211H14.6269V9.74912H12.2263L12.2269 5.41085ZM11.9594 10.2637H15.3802V13.1938H10.3741V10.2637H11.9594ZM5.93313 5.66911H11.7143V9.74975H10.0035C9.93564 9.74975 9.87052 9.77683 9.82251 9.82502C9.7745 9.87321 9.74753 9.93858 9.74753 10.0067V13.1944H5.93313C5.9023 8.41371 5.93313 8.17503 5.93313 5.66911ZM3.90944 16.6911L1.90816 13.7096H16.2525L17.5696 15.1692C17.5928 15.1965 17.6217 15.2183 17.6542 15.2331C17.6867 15.248 17.7221 15.2556 17.7578 15.2553H49.4212L46.3825 18.5458H5.14977C4.74143 17.9471 3.90944 16.6911 3.90944 16.6911ZM42.0209 23.2765C41.9212 22.8481 41.6781 22.467 41.3323 22.1968C40.9864 21.9265 40.5587 21.7835 40.1205 21.7915C39.6823 21.7996 39.2601 21.9582 38.9244 22.241C38.5886 22.5237 38.3596 22.9135 38.2756 23.3453C38.2008 23.6514 38.026 23.9235 37.7789 24.118C37.5319 24.3126 37.227 24.4183 36.913 24.4183C36.599 24.4183 36.2941 24.3126 36.0471 24.118C35.8001 23.9235 35.6252 23.6514 35.5504 23.3453C35.4667 22.9076 35.2337 22.5128 34.8914 22.2289C34.5491 21.945 34.119 21.7897 33.6749 21.7897C33.2309 21.7897 32.8007 21.945 32.4584 22.2289C32.1161 22.5128 31.8831 22.9076 31.7994 23.3453C31.7247 23.6514 31.5498 23.9235 31.3028 24.118C31.0557 24.3126 30.7508 24.4183 30.4368 24.4183C30.1229 24.4183 29.818 24.3126 29.5709 24.118C29.3239 23.9235 29.149 23.6514 29.0743 23.3453C28.9937 22.9043 28.7616 22.5055 28.4184 22.2185C28.0752 21.9315 27.6426 21.7743 27.1959 21.7743C26.7492 21.7743 26.3166 21.9315 25.9734 22.2185C25.6302 22.5055 25.3981 22.9043 25.3175 23.3453C25.2427 23.6514 25.0679 23.9235 24.8208 24.118C24.5738 24.3126 24.2689 24.4183 23.9549 24.4183C23.6409 24.4183 23.336 24.3126 23.089 24.118C22.842 23.9235 22.6671 23.6514 22.5924 23.3453C22.5271 22.8927 22.3016 22.4788 21.9572 22.1795C21.6128 21.8802 21.1724 21.7154 20.7168 21.7154C20.2612 21.7154 19.8209 21.8802 19.4765 22.1795C19.132 22.4788 18.9065 22.8927 18.8413 23.3453C18.7648 23.6506 18.5889 23.9215 18.3415 24.1151C18.0942 24.3086 17.7895 24.4137 17.4759 24.4137C17.1622 24.4137 16.8576 24.3086 16.6102 24.1151C16.3628 23.9215 16.187 23.6506 16.1104 23.3453C16.0452 22.8933 15.8201 22.4801 15.4761 22.1812C15.1321 21.8823 14.6924 21.7178 14.2375 21.7178C13.7825 21.7178 13.3428 21.8823 12.9988 22.1812C12.6549 22.4801 12.4297 22.8933 12.3645 23.3453C12.2893 23.651 12.1142 23.9225 11.8672 24.1167C11.6202 24.3108 11.3156 24.4162 11.0019 24.4162C10.6883 24.4162 10.3836 24.3108 10.1366 24.1167C9.88967 23.9225 9.7146 23.651 9.63937 23.3453C9.58621 22.893 9.36181 22.4785 9.01263 22.1877C8.66344 21.8968 8.21621 21.7519 7.76353 21.7829C7.6297 21.7846 7.49627 21.7982 7.36481 21.8234L5.50048 19.0417H45.9095L42.0209 23.2765Z" fill="#15ACA2" stroke="#15ACA2" stroke-width="0.5"/>
</svg>
