<svg width="26" height="26" viewBox="0 0 26 26" fill="none" xmlns="http://www.w3.org/2000/svg">
<path d="M12.1154 1C11.9974 1 11.8843 1.04688 11.801 1.13026C11.7176 1.21365 11.6707 1.32671 11.6707 1.44463V3.67315H9.44669C9.32877 3.67315 9.21568 3.71998 9.13229 3.80336C9.04891 3.88675 9.00206 3.99986 9.00206 4.11778V6.34267H6.7798C6.66188 6.34267 6.54879 6.38955 6.4654 6.47293C6.38202 6.55632 6.33517 6.66938 6.33517 6.7873V10.9543C6.33544 10.9641 6.33603 10.974 6.33695 10.9838L1.29129 12.8316C1.23571 12.8521 1.18478 12.8833 1.14146 12.9237C1.09815 12.9641 1.06334 13.0128 1.03907 13.0668C1.0148 13.1208 1.00156 13.179 1.00013 13.2382C0.998699 13.2974 1.00911 13.3563 1.03074 13.4114L5.1738 23.8887C4.87758 23.7722 4.60105 23.6109 4.3539 23.4103C4.30871 23.3732 4.25665 23.3454 4.20071 23.3284C4.14477 23.3115 4.08604 23.3057 4.02786 23.3114C3.96969 23.3171 3.91321 23.3343 3.86166 23.3619C3.81011 23.3894 3.7645 23.4269 3.72742 23.472C3.69034 23.5172 3.66253 23.5693 3.64557 23.6252C3.62861 23.6812 3.62283 23.74 3.62857 23.7981C3.63431 23.8563 3.65145 23.9128 3.67902 23.9643C3.70658 24.0159 3.74403 24.0614 3.78922 24.0985C4.45372 24.6409 5.27523 24.955 6.1321 24.9941C6.98897 25.0331 7.83565 24.7952 8.54676 24.3155C9.2039 24.7567 9.9775 24.9923 10.769 24.9923C11.5605 24.9923 12.3341 24.7567 12.9913 24.3155C13.6484 24.7576 14.4224 24.9937 15.2144 24.9937C16.0064 24.9937 16.7804 24.7576 17.4376 24.3155C18.1514 24.798 19.0021 25.0365 19.8627 24.9955C20.7232 24.9544 21.5474 24.6361 22.212 24.0879C22.2844 24.0292 22.3365 23.9493 22.3609 23.8594C22.3854 23.7695 22.381 23.6742 22.3484 23.5869C22.3157 23.4996 22.2565 23.4248 22.1791 23.373C22.1016 23.3213 22.0099 23.2951 21.9168 23.2983C21.8164 23.3017 21.7202 23.3389 21.6438 23.404C21.4064 23.5969 21.1418 23.7537 20.8586 23.8691L24.9785 13.5208C25.0002 13.466 25.0108 13.4073 25.0096 13.3482C25.0084 13.2892 24.9955 13.231 24.9716 13.1771C24.9476 13.1231 24.9132 13.0744 24.8703 13.0339C24.8273 12.9934 24.7768 12.9617 24.7215 12.941L19.6741 11.0442V6.78909C19.6741 6.67117 19.6272 6.55811 19.5438 6.47472C19.4605 6.39134 19.3474 6.34446 19.2294 6.34446H17.0045V4.11952C17.0045 4.0016 16.9577 3.88854 16.8743 3.80515C16.7909 3.72177 16.6778 3.67489 16.5599 3.67489H14.3385V1.44642C14.3385 1.3285 14.2917 1.21544 14.2083 1.13205C14.1249 1.04867 14.0118 1.00179 13.8939 1.00179H12.1154V1ZM12.56 1.88926H13.4493V3.61801L12.56 3.59934V1.88926ZM9.89221 4.56241H16.1135V6.34267H9.89221V4.56241ZM7.22443 7.23193H16.5208C16.5433 7.23364 16.5658 7.23364 16.5883 7.23193H18.7848V10.708L13.1691 8.5979C13.1138 8.57564 13.0545 8.56474 12.9948 8.56587C12.9506 8.56737 12.9068 8.57544 12.865 8.58986H12.8597C12.8567 8.58983 12.8537 8.58983 12.8508 8.58986C12.8415 8.59311 12.8323 8.59664 12.8232 8.6005L7.22354 10.652V7.22753L7.22443 7.23193ZM12.56 9.65074V23.5338C12.0412 23.9042 11.4204 24.1049 10.783 24.1081C10.1455 24.1112 9.52276 23.9168 9.00029 23.5516C8.96345 23.4728 8.90429 23.4065 8.83016 23.361C8.75603 23.3155 8.67017 23.2927 8.58322 23.2955C8.55012 23.2972 8.51731 23.3025 8.4854 23.3115C8.41307 23.3157 8.34284 23.3375 8.28085 23.375C8.21886 23.4125 8.16697 23.4646 8.1297 23.5268C7.57467 23.9276 6.90206 24.1326 6.21779 24.1092L2.02315 13.5092L12.5591 9.64988L12.56 9.65074ZM13.4493 9.65074L23.9843 13.6098L19.8137 24.0861C19.8115 24.0923 19.8094 24.0985 19.8075 24.1048C19.1219 24.137 18.4451 23.9399 17.884 23.5446C17.8466 23.4672 17.7875 23.4023 17.7139 23.3577C17.6404 23.3132 17.5555 23.2911 17.4696 23.2938C17.4347 23.2951 17.4001 23.3004 17.3664 23.3098C17.2975 23.3157 17.2308 23.3377 17.1718 23.374C17.1129 23.4103 17.0632 23.4598 17.0267 23.5187C16.5077 23.8954 15.8841 24.101 15.2428 24.1069C14.6015 24.1128 13.9743 23.9187 13.4484 23.5516V16.6007V9.64988L13.4493 9.65074Z" fill="#15ACA2" stroke="#15ACA2" stroke-width="0.25"/>
</svg>
