<svg width="16" height="19" viewBox="0 0 16 19" fill="none" xmlns="http://www.w3.org/2000/svg">
<path d="M13.6289 18H2.18683C1.87216 17.9997 1.57046 17.8746 1.34795 17.652C1.12545 17.4295 1.00031 17.1278 1 16.8132V2.18684C1.00031 1.87217 1.12545 1.57047 1.34795 1.34797C1.57046 1.12546 1.87216 1.00032 2.18683 1.00001H9.2509C9.43446 0.999257 9.61636 1.03477 9.78615 1.10453C9.95595 1.17428 10.1103 1.27689 10.2403 1.40646L14.4209 5.5743C14.6807 5.83716 14.8263 6.19184 14.8262 6.56138V6.8157C14.8263 6.84026 14.8239 6.86477 14.8192 6.88887V16.8097C14.8195 16.9661 14.789 17.121 14.7293 17.2656C14.6695 17.4101 14.5819 17.5415 14.4713 17.652C14.3607 17.7626 14.2294 17.8503 14.0848 17.91C13.9402 17.9697 13.7853 18.0003 13.6289 18V18ZM2.18683 1.74672C2.0701 1.74672 1.95815 1.79309 1.87561 1.87562C1.79307 1.95816 1.7467 2.07011 1.7467 2.18684V16.819C1.7467 16.9357 1.79307 17.0477 1.87561 17.1302C1.95815 17.2127 2.0701 17.2591 2.18683 17.2591H13.6289C13.6868 17.2585 13.744 17.2465 13.7973 17.2237C13.8505 17.201 13.8987 17.1679 13.9392 17.1265C13.9797 17.0851 14.0115 17.0361 14.033 16.9823C14.0545 16.9285 14.0652 16.8711 14.0644 16.8132V7.19196H9.80715C9.49462 7.18775 9.19607 7.06173 8.97505 6.84071C8.75404 6.6197 8.62801 6.32115 8.62381 6.00861V1.74672H2.18683ZM9.8118 6.44526H14.0644C14.0414 6.31373 13.979 6.19226 13.8856 6.09687L9.71309 1.93484C9.62003 1.84117 9.50044 1.77834 9.37051 1.75484V6.00397C9.3726 6.12035 9.41976 6.23139 9.50207 6.3137C9.58438 6.39601 9.69541 6.44317 9.8118 6.44526Z" fill="#15ACA2" stroke="#15ACA2" stroke-width="0.55" stroke-linecap="round"/>
</svg>
