<svg width="18" height="22" viewBox="0 0 18 22" fill="none" xmlns="http://www.w3.org/2000/svg">
<path d="M15.6145 20.6728H2.37343C2.00928 20.6724 1.66015 20.5276 1.40266 20.2701C1.14517 20.0126 1.00036 19.6635 1 19.2993V2.37343C1.00036 2.00929 1.14517 1.66016 1.40266 1.40267C1.66015 1.14518 2.00928 1.00036 2.37343 1.00001H10.5481C10.7605 0.999132 10.971 1.04023 11.1675 1.12095C11.364 1.20167 11.5426 1.32041 11.6931 1.47036L16.531 6.29347C16.8316 6.59767 17.0001 7.00811 17 7.43575V7.73006C17.0001 7.75847 16.9974 7.78683 16.9919 7.81472V19.2953C16.9923 19.4763 16.9569 19.6556 16.8878 19.8229C16.8187 19.9901 16.7173 20.1421 16.5893 20.2701C16.4613 20.3981 16.3093 20.4995 16.142 20.5686C15.9747 20.6377 15.7955 20.6731 15.6145 20.6728ZM2.37343 1.86411C2.23834 1.86411 2.1088 1.91777 2.01328 2.01329C1.91776 2.1088 1.8641 2.23835 1.8641 2.37343V19.3061C1.8641 19.4411 1.91776 19.5707 2.01328 19.6662C2.1088 19.7617 2.23834 19.8154 2.37343 19.8154H15.6145C15.6815 19.8147 15.7477 19.8008 15.8093 19.7744C15.8709 19.7481 15.9267 19.7099 15.9735 19.6619C16.0204 19.614 16.0572 19.5573 16.0821 19.4951C16.107 19.4329 16.1193 19.3663 16.1184 19.2993V8.16547H11.1918C10.8302 8.1606 10.4847 8.01476 10.2289 7.759C9.97315 7.50323 9.82731 7.15775 9.82244 6.79607V1.86411H2.37343ZM11.1972 7.30137H16.1184C16.0918 7.14916 16.0196 7.00859 15.9115 6.89821L11.083 2.08181C10.9753 1.97341 10.8369 1.9007 10.6865 1.87352V6.7907C10.689 6.92538 10.7435 7.05387 10.8388 7.14912C10.934 7.24437 11.0625 7.29895 11.1972 7.30137Z" fill="#15ACA2" stroke="#15ACA2" stroke-width="0.75" stroke-linecap="round"/>
</svg>
