<svg width="16" height="16" viewBox="0 0 16 16" fill="none" xmlns="http://www.w3.org/2000/svg">
<path d="M1.6912 15.55C1.36214 15.5497 1.04664 15.4189 0.813968 15.1862C0.581293 14.9536 0.45046 14.6381 0.450195 14.309V2.241C0.45046 1.91195 0.581293 1.59645 0.813968 1.36377C1.04664 1.1311 1.36214 1.00026 1.6912 1H7.0622V1.963H1.6912C1.61871 1.96685 1.55022 1.99737 1.49889 2.0487C1.44757 2.10002 1.41704 2.16852 1.4132 2.241V14.309C1.41704 14.3815 1.44757 14.45 1.49889 14.5013C1.55022 14.5526 1.61871 14.5832 1.6912 14.587H13.7592C13.8317 14.5832 13.9002 14.5526 13.9515 14.5013C14.0028 14.45 14.0333 14.3815 14.0372 14.309V8.938H15.0002V14.309C14.9999 14.6381 14.8691 14.9536 14.6364 15.1862C14.4037 15.4189 14.0882 15.5497 13.7592 15.55H1.6912ZM5.6712 11.014L4.9862 10.329L13.3502 1.963H8.7952V1H15.0002V7.205H14.0372V2.669L5.6712 11.014Z" fill="#15ACA2" stroke="#15ACA2" stroke-width="0.5"/>
</svg>
