<svg width="18" height="18" viewBox="0 0 18 18" fill="none" xmlns="http://www.w3.org/2000/svg">
<path d="M6.68366 0C7.9623 0.000658705 9.21397 0.367583 10.2905 1.05734C11.367 1.74709 12.2234 2.73079 12.7581 3.89198C13.2928 5.05318 13.4836 6.34324 13.3078 7.60946C13.132 8.87567 12.597 10.065 11.7662 11.0367L12.0443 11.3148H12.8545L18 16.4574L16.4571 18L11.3134 12.8574V12.0474L11.0352 11.7693C10.2161 12.4695 9.23998 12.9615 8.18981 13.2033C7.13964 13.4452 6.04657 13.4298 5.00365 13.1584C3.96073 12.887 2.99885 12.3676 2.19989 11.6446C1.40094 10.9215 0.788563 10.0162 0.414908 9.00555C0.0412524 7.99495 -0.0826201 6.90905 0.0538357 5.84028C0.190292 4.77152 0.583035 3.75154 1.19863 2.86719C1.81423 1.98284 2.63444 1.2603 3.58946 0.761089C4.54447 0.261876 5.60599 0.000769675 6.68366 0M6.68366 2.0574C5.768 2.0574 4.87289 2.32887 4.11154 2.83748C3.35019 3.34608 2.75679 4.06899 2.40638 4.91477C2.05597 5.76056 1.96429 6.69123 2.14293 7.58911C2.32156 8.48699 2.7625 9.31175 3.40997 9.95908C4.05745 10.6064 4.88238 11.0473 5.78045 11.2259C6.67853 11.4045 7.60941 11.3128 8.45537 10.9625C9.30134 10.6121 10.0244 10.0189 10.5331 9.25767C11.0418 8.49648 11.3134 7.60157 11.3134 6.6861C11.316 6.07752 11.198 5.47444 10.9663 4.91168C10.7345 4.34891 10.3936 3.83761 9.9632 3.40727C9.53277 2.97694 9.02135 2.63609 8.45847 2.4044C7.89558 2.17272 7.29238 2.05478 6.68366 2.0574V2.0574Z" fill="#15ACA2"/>
</svg>
