<svg width="12" height="12" viewBox="0 0 12 12" fill="none" xmlns="http://www.w3.org/2000/svg">
<path d="M1 12C0.733333 12 0.5 11.9 0.3 11.7C0.1 11.5 0 11.2667 0 11V1C0 0.733333 0.1 0.5 0.3 0.3C0.5 0.1 0.733333 0 1 0H11C11.2667 0 11.5 0.1 11.7 0.3C11.9 0.5 12 0.733333 12 1V11C12 11.2667 11.9 11.5 11.7 11.7C11.5 11.9 11.2667 12 11 12H1Z" fill="#15ACA2"/>
<path d="M9.79999 3.83288L4.98333 8.64954L2.28333 5.94954L2.99999 5.23288L4.98333 7.21621L9.08333 3.11621L9.79999 3.83288Z" fill="white"/>
</svg>
