<svg width="30" height="30" viewBox="0 0 30 30" fill="none" xmlns="http://www.w3.org/2000/svg">
<g clip-path="url(#clip0_179_5781)">
<path d="M7.97107 23.4261L7.53083 23.7165L4.07452 13.7128L14.9773 9.61023L25.8521 13.7128L22.4051 23.7165L21.9743 23.4355V22.6768L24.6438 14.3872L14.9867 10.7436L5.29219 14.3872L7.97107 22.6674V23.4167V23.4261Z" fill="#15ACA2" stroke="#15ACA2" stroke-width="0.65"/>
<path d="M25.4868 14.7151L14.9773 10.7436L4.43045 14.7151L3.19405 11.315C3.11911 11.1183 3.11911 10.8935 3.19405 10.6968C3.26898 10.5001 3.40948 10.3409 3.57808 10.2753L14.9773 5.74182L26.3579 10.2659C26.5265 10.3409 26.667 10.4907 26.7325 10.6968C26.7981 10.8935 26.7981 11.1183 26.7325 11.3056L25.4868 14.7057V14.7151ZM4.13072 11.1932L4.92689 13.385L14.9773 9.6009L24.9903 13.385L25.7865 11.1932L14.9773 6.88456L4.13072 11.1932Z" fill="#15ACA2" stroke="#15ACA2" stroke-width="0.65"/>
<path d="M5.87292 10.4906L6.72529 1.55482C6.79086 0.84295 7.29666 0.299683 7.88676 0.299683H22.0305C22.6206 0.299683 23.1264 0.833584 23.1919 1.55482L24.0443 10.4813L14.9773 6.8751L5.87292 10.4906ZM7.88676 1.39559C7.75563 1.39559 7.63386 1.51735 7.6245 1.68595L6.93136 8.9264L14.9773 5.73236L22.9859 8.91704L22.2927 1.68595C22.274 1.52672 22.1616 1.39559 22.0211 1.39559H7.88676Z" fill="#15ACA2" stroke="#15ACA2" stroke-width="0.65"/>
<path d="M14.5371 10.1909H15.4363V23.2106H14.5371V10.1909Z" fill="#15ACA2" stroke="#15ACA2" stroke-width="0.65"/>
<path d="M25.7959 25.5524C25.7209 25.5524 25.6554 25.5524 25.5804 25.5524C24.5969 25.5149 23.7914 25.1871 23.295 24.9154C22.8922 24.7 22.6674 24.522 22.6393 24.5033C22.6393 24.5033 22.0398 24.035 21.1406 23.8195C19.9604 23.5292 18.8177 23.7727 17.7218 24.5314C15.9983 25.7303 14.3966 25.6648 13.3475 25.4025C12.2235 25.1121 11.5023 24.5314 11.4648 24.5127C11.4648 24.5127 10.8747 24.0443 9.97553 23.8289C8.79533 23.5385 7.6526 23.7821 6.55669 24.5408C6.34126 24.6906 6.14456 24.8124 5.93849 24.9248C4.34616 25.7772 2.90368 25.6367 1.97638 25.3557C0.974147 25.0559 0.337213 24.5501 0.309113 24.5314L1.01161 23.6603C1.01161 23.6603 1.53615 24.0631 2.33232 24.2972C3.38139 24.597 4.41172 24.4752 5.40459 23.9413C5.56382 23.8476 5.73242 23.754 5.91039 23.6228C7.63386 22.4239 9.23557 22.4895 10.2846 22.7611C11.4086 23.0515 12.1299 23.6322 12.1673 23.6509C12.1673 23.6509 12.7574 24.1193 13.6566 24.3347C14.8368 24.6251 15.9796 24.3815 17.0755 23.6228C18.799 22.4239 20.4007 22.4895 21.4497 22.7517C22.5456 23.0327 23.2575 23.5854 23.3231 23.6416C23.3231 23.6416 23.501 23.7821 23.8101 23.9413C24.6531 24.3909 26.3391 24.9342 28.2406 23.6135L28.8775 24.5314C27.894 25.2152 26.8543 25.5617 25.7865 25.5617L25.7959 25.5524Z" fill="#15ACA2" stroke="#15ACA2" stroke-width="0.5"/>
<path d="M14.6214 29.3458C14.1437 29.3458 13.7128 29.2802 13.3569 29.1866C12.2329 28.8962 11.5117 28.3155 11.4742 28.2967C11.4742 28.2967 10.8841 27.8284 9.98489 27.6129C8.80468 27.3226 7.66195 27.5661 6.56605 28.3248C6.35061 28.4747 6.15391 28.5965 5.94784 28.7089L5.42331 27.7253C5.58254 27.6317 5.75114 27.5286 5.92911 27.4069C7.65258 26.2079 9.25429 26.2735 10.3034 26.5451C11.4274 26.8355 12.1486 27.4162 12.1861 27.435C12.1861 27.435 12.7762 27.9033 13.6754 28.1188C14.8556 28.4091 15.9983 28.1656 17.0942 27.4069C18.8177 26.2079 20.4194 26.2735 21.4684 26.5358C22.5644 26.8168 23.2762 27.3694 23.3418 27.4256C23.3418 27.4256 23.5198 27.5661 23.8289 27.7253L23.3043 28.7089C22.9109 28.4934 22.6674 28.3155 22.6486 28.2967C22.6486 28.2967 22.0492 27.8284 21.15 27.6129C19.9698 27.3226 18.827 27.5661 17.7311 28.3248C16.6071 29.1116 15.53 29.3552 14.6308 29.3552L14.6214 29.3458Z" fill="#15ACA2" stroke="#15ACA2" stroke-width="0.5"/>
</g>
<defs>
<clipPath id="clip0_179_5781">
<rect width="29.2147" height="29.58" fill="white"/>
</clipPath>
</defs>
</svg>
