<svg width="17" height="14" viewBox="0 0 17 14" fill="none" xmlns="http://www.w3.org/2000/svg">
<path d="M8.53007 5.14024C8.35869 4.89882 8.13691 4.69751 7.88007 4.55024C7.41197 4.29165 6.86031 4.22961 6.34646 4.37777C5.83261 4.52592 5.39866 4.87213 5.14007 5.34024C4.88149 5.80835 4.81945 6.36 4.9676 6.87385C5.11576 7.3877 5.46197 7.82165 5.93007 8.08024C6.23372 8.2457 6.57428 8.3317 6.92007 8.33024L6.15007 11.3302L5.39007 12.2002C5.31436 12.2826 5.21712 12.3422 5.10933 12.3723C5.00153 12.4023 4.88749 12.4016 4.78007 12.3702C4.43753 12.2495 4.10626 12.0989 3.79007 11.9202C3.4837 11.7527 3.19259 11.5586 2.92007 11.3402C2.83514 11.2662 2.77309 11.1695 2.7412 11.0615C2.70932 10.9534 2.70893 10.8385 2.74007 10.7302L3.16007 9.33024C2.89548 8.99585 2.67376 8.62967 2.50007 8.24024L1.06007 7.95324C0.949283 7.93421 0.846901 7.88193 0.766526 7.80335C0.68615 7.72476 0.631584 7.62357 0.610074 7.51324C0.553583 7.19818 0.516845 6.87989 0.500074 6.56024V6.33024C0.498506 6.01223 0.521911 5.69459 0.570074 5.38024C0.589723 5.27025 0.640776 5.1683 0.717075 5.08667C0.793373 5.00505 0.891658 4.94725 1.00007 4.92024L2.43007 4.58024C2.50347 4.3796 2.59379 4.18557 2.70007 4.00024C2.80162 3.81308 2.91519 3.6327 3.04007 3.46024L2.57007 2.08024C2.53226 1.97427 2.5273 1.85936 2.55584 1.75052C2.58439 1.64169 2.64511 1.544 2.73007 1.47024C2.97003 1.26606 3.22398 1.07894 3.49007 0.910239L3.69007 0.790239C3.96658 0.630319 4.25395 0.489975 4.55007 0.370239C4.6567 0.331383 4.77243 0.324891 4.88273 0.351577C4.99304 0.378264 5.093 0.43694 5.17007 0.520239L6.17007 1.58024C6.59087 1.5213 7.01715 1.51224 7.44007 1.55324L8.40007 0.453239C8.47665 0.369007 8.5756 0.308295 8.68538 0.278194C8.79517 0.248092 8.91125 0.249842 9.02007 0.283239C9.35576 0.400977 9.68037 0.548219 9.99007 0.723239C10.3016 0.8965 10.5992 1.09376 10.8801 1.31324C10.9681 1.38492 11.0323 1.48153 11.0645 1.59039C11.0966 1.69924 11.0951 1.81527 11.0601 1.92324L10.6401 3.32324M16.5001 6.66024H14.1401L12.6401 11.0002C12.5247 11.3482 12.4279 11.702 12.3501 12.0602H12.3201C12.2666 11.7028 12.1795 11.3513 12.0601 11.0102L10.5601 6.66024H8.13007V14.0002H9.62007V9.94024C9.62007 9.39024 9.60007 8.76024 9.55007 8.04024H9.60007C9.6585 8.3841 9.73528 8.72458 9.83007 9.06024L11.5801 14.0002H12.9301L14.6501 9.01024C14.7508 8.69308 14.8277 8.36885 14.8801 8.04024H14.9201C14.8801 8.61024 14.8601 9.14024 14.8601 9.61024V14.0002H16.5001V6.66024Z" fill="black"/>
</svg>
