<svg width="12" height="15" viewBox="0 0 12 15" fill="none" xmlns="http://www.w3.org/2000/svg">
<path d="M2.54 3.38C2.54 2.7115 2.73824 2.05801 3.10963 1.50217C3.48103 0.946336 4.00892 0.513113 4.62653 0.257289C5.24415 0.00146449 5.92375 -0.0654708 6.57941 0.0649473C7.23506 0.195365 7.83732 0.517279 8.31002 0.989981C8.78272 1.46268 9.10464 2.06494 9.23506 2.7206C9.36547 3.37625 9.29854 4.05586 9.04272 4.67347C8.78689 5.29109 8.35367 5.81897 7.79783 6.19037C7.24199 6.56177 6.5885 6.76 5.92 6.76C5.47599 6.76053 5.03623 6.67346 4.62591 6.50379C4.21559 6.33411 3.84277 6.08516 3.52881 5.7712C3.21484 5.45723 2.96589 5.08441 2.79622 4.67409C2.62654 4.26378 2.53948 3.82402 2.54 3.38M6.37 8.03H4.58C3.97851 8.02987 3.38289 8.14825 2.82716 8.37837C2.27143 8.60849 1.76648 8.94584 1.34116 9.37116C0.915842 9.79648 0.578486 10.3014 0.348366 10.8572C0.118246 11.4129 -0.000129189 12.0085 2.18361e-06 12.61C-0.000261482 12.7309 0.0233551 12.8506 0.069496 12.9624C0.115637 13.0741 0.183394 13.1756 0.268876 13.2611C0.354358 13.3466 0.455883 13.4144 0.567622 13.4605C0.67936 13.5066 0.799112 13.5303 0.920002 13.53H6.38V8.03H6.37ZM11.9 13.11H9.15V11.43H11.55V10.09H9.15V8.45H11.73V7.1H7.5V14.44H11.9V13.11Z" fill="black"/>
</svg>
