<svg width="24" height="24" viewBox="0 0 24 24" fill="none" xmlns="http://www.w3.org/2000/svg">
<g clip-path="url(#clip0_208_8072)">
<path d="M10.4317 23.9297C8.55702 23.6646 6.47529 22.7479 4.96416 21.5227C3.70816 20.5041 2.8059 19.438 2.02629 18.0502C1.83151 17.7035 1.66519 17.3971 1.65636 17.37C1.64654 17.3389 1.4449 17.3542 1.12697 17.4103C0.632909 17.497 0.606415 17.497 0.426355 17.4078C0.184966 17.2885 0 17.007 0 16.7592C0 16.4661 1.00775 13.0924 1.23491 12.6244C1.42527 12.2328 1.90756 12.1069 2.25688 12.3587C2.49238 12.5285 4.38817 14.6663 4.90087 15.3398C5.10546 15.6085 5.11233 15.6294 5.09271 15.9139C5.07505 16.1653 5.04757 16.2356 4.90725 16.386C4.72081 16.5859 4.62122 16.6257 3.9991 16.748C3.75624 16.7959 3.5492 16.8418 3.53938 16.8505C3.50455 16.8801 3.79549 17.3573 4.14187 17.8391C4.56872 18.4325 5.3861 19.3202 5.91255 19.7617C6.77605 20.4852 7.81078 21.1215 8.75818 21.511C9.2336 21.7068 10.285 21.9913 10.81 22.0667C11.2982 22.1371 12.2784 22.1376 12.8937 22.0683C15.8693 21.7328 18.4265 20.216 19.9268 17.8957C20.5789 16.8872 20.9669 15.8848 21.2643 14.441C21.4973 13.3086 21.5768 13.1332 21.9418 12.9395C22.3402 12.7284 22.9358 12.892 23.1213 13.2637C23.4157 13.8526 22.9604 16.0057 22.2019 17.6097C21.46 19.1795 20.336 20.5795 18.9485 21.6624C17.3226 22.9309 15.0583 23.817 13.0782 23.9588C12.1788 24.0235 11.0033 24.0103 10.4317 23.9292V23.9297ZM10.3498 17.0075C9.87043 16.8179 9.47155 16.5895 9.46321 16.4992C9.46027 16.4656 9.45438 16.1698 9.45095 15.842C9.44457 15.2598 9.44113 15.2429 9.30376 15.0936C9.10358 14.8759 8.79743 14.8096 8.31515 14.8794C8.02518 14.9212 7.91774 14.9197 7.86377 14.8733C7.75632 14.7805 7.53358 14.2951 7.35499 13.7644L7.19504 13.2882L7.57332 12.9318C7.99477 12.5346 8.09485 12.3751 8.09485 12.0997C8.09485 11.8244 7.94276 11.6098 7.54977 11.284C7.36382 11.13 7.21173 10.9827 7.21173 10.9577C7.21173 10.8318 7.47814 10.0716 7.64102 9.73355L7.82501 9.35116L8.37157 9.36901C9.0344 9.39042 9.22182 9.32261 9.37833 9.00396C9.46616 8.825 9.47695 8.72558 9.46174 8.23358L9.44408 7.66867L9.81205 7.4785C10.1874 7.28425 10.8571 7.03085 10.9896 7.03238C11.0298 7.03289 11.1623 7.17361 11.2839 7.34492C11.6808 7.90473 12.1092 8.08267 12.4634 7.83437C12.5532 7.77115 12.7494 7.57027 12.8991 7.38826C13.138 7.09713 13.1905 7.05838 13.3289 7.06756C13.5202 7.08082 14.3077 7.39131 14.5839 7.56262L14.7846 7.68703L14.7723 8.27743C14.7615 8.80053 14.7718 8.8872 14.8626 9.04016C15.0304 9.3221 15.2291 9.38787 15.8566 9.36799L16.3982 9.35065L16.5385 9.63107C16.7299 10.0135 16.9639 10.6538 16.9835 10.8501C16.9983 10.9944 16.9669 11.0388 16.6818 11.2789C16.2785 11.6185 16.1411 11.8265 16.1411 12.0997C16.1411 12.3955 16.2628 12.5943 16.644 12.9196C17.0439 13.2612 17.0508 13.3066 16.801 13.9796C16.6043 14.5093 16.4223 14.8575 16.3207 14.8978C16.2829 14.9126 16.1009 14.9054 15.9159 14.882C15.5279 14.832 15.1388 14.8917 14.999 15.0232C14.7924 15.2175 14.7532 15.3832 14.7806 15.9435C14.8009 16.3582 14.6426 16.6484 14.3057 16.8143C13.8406 17.0427 13.3696 17.1946 13.2376 17.159C13.1753 17.1421 13.0149 16.9871 12.8809 16.8138C12.5836 16.4299 12.4055 16.3106 12.1283 16.3101C11.8354 16.3101 11.697 16.3983 11.3408 16.8148C10.9758 17.2415 10.9537 17.2461 10.3498 17.007V17.0075ZM21.5778 11.4793C20.9974 10.9062 19.0682 8.66695 18.9456 8.42375C18.8097 8.15456 18.9618 7.66867 19.236 7.49532C19.3165 7.44434 19.6148 7.35002 19.8984 7.28527C20.1819 7.22052 20.4268 7.14659 20.442 7.1211C20.4572 7.0956 20.3645 6.91002 20.2364 6.70863C18.951 4.6876 16.9536 3.07598 14.8184 2.33721C13.7837 1.9793 13.3671 1.91302 12.1435 1.912C11.334 1.91149 10.942 1.93341 10.5755 1.99969C7.54584 2.55032 5.2556 4.08139 3.85142 6.49501C3.3289 7.39284 2.99332 8.333 2.75144 9.57448C2.57432 10.4846 2.48748 10.7165 2.24167 10.9409C2.03757 11.1275 1.80992 11.1871 1.48071 11.1407C1.23196 11.1061 1.06908 11.0036 0.911094 10.7833C0.824253 10.6625 0.810025 10.5687 0.810516 10.1236C0.811497 9.48627 0.953288 8.75159 1.25895 7.79613C2.45412 4.06457 5.36059 1.33791 9.21937 0.328413C10.6913 -0.056521 12.8068 -0.109035 14.2684 0.202481C15.9886 0.56957 17.5276 1.29151 18.9299 2.38972C20.2467 3.42114 21.2324 4.58512 22.0547 6.07999L22.3868 6.68416L22.588 6.64898C23.3224 6.5205 23.4755 6.52712 23.7262 6.69792C23.8832 6.80499 24.0029 7.06093 23.999 7.2817C23.9936 7.57231 23.0968 10.6013 22.8009 11.3289C22.6812 11.623 22.4457 11.7724 22.1008 11.7724C21.8923 11.7724 21.8511 11.749 21.5773 11.4793H21.5778Z" fill="#282828"/>
<path d="M12 14.6666C13.4728 14.6666 14.6667 13.4727 14.6667 11.9999C14.6667 10.5272 13.4728 9.33325 12 9.33325C10.5273 9.33325 9.33334 10.5272 9.33334 11.9999C9.33334 13.4727 10.5273 14.6666 12 14.6666Z" fill="white"/>
</g>
<defs>
<clipPath id="clip0_208_8072">
<rect width="24" height="24" fill="white"/>
</clipPath>
</defs>
</svg>
