<svg width="21" height="15" viewBox="0 0 21 15" fill="none" xmlns="http://www.w3.org/2000/svg">
<path d="M20.4523 13.6495V7.4217C20.4523 6.84935 19.9871 6.38381 19.4144 6.38381C18.8413 6.38381 18.3765 6.84937 18.3765 7.4217V11.144L11.8446 4.61174C11.6484 4.41552 11.3877 4.30765 11.1104 4.30765C10.8331 4.30765 10.5728 4.41553 10.3766 4.61174L7.99667 6.99168L1.4648 0.459816C0.635212 -0.140601 -0.924163 1.2021 0.730625 2.66126L7.26249 9.19313C7.45907 9.3897 7.71936 9.49759 7.99667 9.49759C8.27398 9.49759 8.53427 9.3897 8.73048 9.1935L11.1104 6.81318L16.9089 12.6112H13.1866C12.6135 12.6112 12.1487 13.0768 12.1487 13.6491C12.1487 14.2215 12.6139 14.687 13.1866 14.687H19.4144C19.9874 14.6874 20.4523 14.2218 20.4523 13.6495Z" fill="#ED1C24"/>
</svg>
