<svg width="21" height="15" viewBox="0 0 21 15" fill="none" xmlns="http://www.w3.org/2000/svg">
<path d="M20.4523 1.35051V7.5783C20.4523 8.15065 19.9871 8.61619 19.4144 8.61619C18.8413 8.61619 18.3765 8.15063 18.3765 7.5783V3.85602L11.8446 10.3883C11.6484 10.5845 11.3877 10.6924 11.1104 10.6924C10.8331 10.6924 10.5728 10.5845 10.3766 10.3883L7.99667 8.00832L1.4648 14.5402C0.635212 15.1406 -0.924163 13.7979 0.730625 12.3387L7.26249 5.80687C7.45907 5.6103 7.71936 5.50241 7.99667 5.50241C8.27398 5.50241 8.53427 5.6103 8.73048 5.8065L11.1104 8.18682L16.9089 2.38876H13.1866C12.6135 2.38876 12.1487 1.92321 12.1487 1.35088C12.1487 0.778523 12.6139 0.312988 13.1866 0.312988H19.4144C19.9874 0.312626 20.4523 0.778179 20.4523 1.35051Z" fill="#39B54A"/>
</svg>
