<svg width="25" height="25" viewBox="0 0 25 25" fill="none" xmlns="http://www.w3.org/2000/svg">
<path d="M3.12001 24.966C3.02973 24.9456 2.94569 24.9038 2.87501 24.844C2.84101 24.803 2.18601 22.432 1.41901 19.574C0.652014 16.716 0.0130143 14.347 1.42988e-05 14.309C-0.0129857 14.271 1.65801 13.223 3.85501 11.894C5.98801 10.603 7.75501 9.537 7.77801 9.524C7.80101 9.511 7.82201 12.843 7.82201 16.924V24.352L7.46601 23.958C7.30064 23.7331 7.08421 23.5508 6.83454 23.4259C6.58488 23.3011 6.30913 23.2374 6.03001 23.24C5.32301 23.24 4.90601 23.493 4.19501 24.373C3.72901 24.95 3.51701 25.067 3.12001 24.964V24.966ZM9.67101 24.174C9.64086 23.2101 9.68029 22.2452 9.78901 21.287C9.97553 20.4473 10.3993 19.6788 11.01 19.073C11.6513 18.4148 12.475 17.9637 13.375 17.778L13.702 17.711L14.189 18.004C15.0423 18.5174 16.0111 18.808 17.0061 18.8488C18.0011 18.8897 18.9905 18.6797 19.883 18.238C20.1164 18.1236 20.342 17.9936 20.558 17.849C20.774 17.684 20.958 17.694 21.606 17.905C22.3294 18.1403 22.9849 18.5477 23.5162 19.0922C24.0474 19.6367 24.4386 20.302 24.656 21.031C24.796 21.6323 24.8482 22.2507 24.811 22.867L24.838 24.267H17.274C10.391 24.269 9.70001 24.26 9.67201 24.174H9.67101ZM16.271 17.15C15.9451 17.0605 15.6286 16.9396 15.326 16.789C14.919 16.6017 14.5545 16.3332 14.255 16C13.9245 15.7023 13.6593 15.3393 13.476 14.934C13.1762 14.3606 13.0196 13.7231 13.0196 13.076C13.0196 12.4289 13.1762 11.7914 13.476 11.218C13.7278 10.7212 14.0753 10.2791 14.4985 9.91696C14.9217 9.55486 15.4123 9.27994 15.942 9.108C16.6619 8.90428 17.4187 8.86734 18.155 9C18.8073 9.16838 19.4193 9.46555 19.955 9.874C20.6428 10.4619 21.1353 11.2453 21.367 12.12C21.5442 12.8947 21.498 13.7038 21.2337 14.4532C20.9694 15.2027 20.4979 15.8618 19.874 16.354C19.3661 16.7388 18.7809 17.0092 18.1586 17.1466C17.5364 17.284 16.8918 17.2852 16.269 17.15H16.271ZM3.21601 6.969V4.429H15.853V7.129L15.248 7.291C14.8521 7.40215 14.4628 7.5357 14.082 7.691L13.373 7.991C13.241 8.046 13.033 7.944 11.38 7.013L9.53501 5.966L6.56701 7.639C4.93501 8.559 3.51301 9.357 3.40801 9.411L3.21601 9.511V6.969ZM7.82201 1.269V0H11.247V2.539H7.82201V1.269Z" fill="#DE2C36"/>
</svg>
