<svg width="18" height="24" viewBox="0 0 18 24" fill="none" xmlns="http://www.w3.org/2000/svg">
<path d="M8.38228 1.252L7.55228 0.852003L7.55728 0.874003C7.15328 0.700004 6.72228 0.519003 6.24228 0.331003C6.11987 0.270511 5.98908 0.228713 5.85428 0.207003C5.79028 0.185003 5.70928 0.153003 5.64428 0.131003C5.54024 0.089764 5.43409 0.0540476 5.32628 0.0240035C5.2157 -0.00330504 5.10065 -0.00736221 4.98842 0.0120887C4.87619 0.0315397 4.76922 0.0740752 4.67428 0.137003L4.64728 0.153003L4.61528 0.185003C4.51629 0.279265 4.4487 0.401702 4.42169 0.535696C4.39467 0.66969 4.40954 0.808751 4.46428 0.934003C4.63383 1.57479 4.67999 2.24197 4.60028 2.9C4.38645 4.59575 3.75261 6.21127 2.75628 7.6C-0.18172 11.987 -0.0197203 14.865 0.0122797 15.194C0.0215269 17.5305 0.955285 19.7683 2.60948 21.4183C4.26368 23.0684 6.50381 23.9966 8.84028 24H9.03428C10.6 23.9609 12.1275 23.5086 13.4622 22.689C14.7968 21.8694 15.8912 20.7117 16.6343 19.333C17.3222 18.0579 17.7203 16.6467 17.8003 15.2C18.3173 8.48 13.2793 3.581 8.38528 1.248M6.00828 1.717C6.59741 1.94095 7.17482 2.19461 7.73828 2.477C9.81208 3.46304 11.6767 4.83908 13.2303 6.53C14.7785 8.17259 15.824 10.2241 16.2433 12.442C15.5693 12.642 14.8533 12.825 14.1093 12.981L14.0773 12.986L14.0283 13.008C13.8754 13.0667 13.7164 13.1083 13.5543 13.132C13.0703 13.1946 12.5817 13.2143 12.0943 13.191C10.6044 12.9314 9.1476 12.5085 7.75028 11.93L7.73428 11.925C6.94014 11.6612 6.11327 11.5088 5.27728 11.472C5.16428 11.467 5.05128 11.467 4.93728 11.467C3.93245 11.4676 2.9365 11.6551 2.00028 12.02C2.51222 10.7459 3.1557 9.5286 3.92028 8.388C5.3063 6.4438 6.03664 4.10847 6.00528 1.721L6.00828 1.717ZM7.17528 13.205L7.32628 13.264C8.79046 13.9285 10.3479 14.3646 11.9443 14.557H11.9713C12.0469 14.557 12.1224 14.5623 12.1973 14.573C12.2969 14.5843 12.397 14.5896 12.4973 14.589C13.8148 14.5286 15.1181 14.2911 16.3723 13.883L16.4373 13.867C16.4572 14.1235 16.4609 14.381 16.4483 14.638H16.4433L16.4113 15.091C16.332 16.3373 15.9913 17.553 15.4113 18.659C14.7763 19.8137 13.8508 20.7826 12.7263 21.4698C11.6019 22.157 10.3175 22.5386 9.00028 22.577H8.81828C6.84935 22.5751 4.9616 21.7922 3.56935 20.3999C2.17711 19.0077 1.39413 17.1199 1.39228 15.151V15.076C1.3734 14.6694 1.4043 14.2621 1.48428 13.863C2.31898 13.3245 3.26633 12.985 4.25311 12.8709C5.2399 12.7568 6.23971 12.8711 7.17528 13.205ZM4.50728 19.241C4.50523 19.3767 4.53208 19.5112 4.58605 19.6357C4.64001 19.7602 4.71986 19.8718 4.82028 19.963C5.00086 20.1205 5.23264 20.2069 5.47228 20.206C5.66314 20.206 5.84971 20.1494 6.00841 20.0434C6.1671 19.9373 6.29079 19.7866 6.36382 19.6103C6.43686 19.434 6.45597 19.2399 6.41874 19.0527C6.3815 18.8656 6.2896 18.6936 6.15464 18.5586C6.01968 18.4237 5.84773 18.3318 5.66054 18.2945C5.47335 18.2573 5.27932 18.2764 5.10299 18.3495C4.92666 18.4225 4.77595 18.5462 4.66991 18.7049C4.56388 18.8636 4.50728 19.0501 4.50728 19.241ZM4.22128 15.841C4.40186 15.9985 4.63364 16.0849 4.87328 16.084C5.06414 16.084 5.25071 16.0274 5.40941 15.9214C5.5681 15.8153 5.69178 15.6646 5.76482 15.4883C5.83786 15.312 5.85697 15.1179 5.81974 14.9307C5.7825 14.7435 5.6906 14.5716 5.55564 14.4366C5.42068 14.3017 5.24873 14.2098 5.06154 14.1725C4.87435 14.1353 4.68032 14.1544 4.50399 14.2275C4.32766 14.3005 4.17695 14.4242 4.07091 14.5829C3.96488 14.7416 3.90828 14.9281 3.90828 15.119C3.90551 15.2555 3.93202 15.391 3.98601 15.5164C4.04 15.6418 4.12022 15.7542 4.22128 15.846V15.841ZM13.7063 16.908C13.8869 17.0655 14.1186 17.1519 14.3583 17.151C14.5781 17.1465 14.7896 17.0656 14.9561 16.922C15.1227 16.7784 15.234 16.5812 15.2708 16.3644C15.3076 16.1476 15.2677 15.9248 15.1578 15.7343C15.048 15.5438 14.8752 15.3975 14.6692 15.3207C14.4631 15.2439 14.2367 15.2414 14.029 15.3135C13.8213 15.3857 13.6452 15.5281 13.5312 15.7161C13.4171 15.9041 13.3722 16.126 13.4042 16.3436C13.4361 16.5611 13.543 16.7607 13.7063 16.908ZM8.32828 16.876C8.50886 17.0335 8.74064 17.1199 8.98028 17.119C9.17114 17.119 9.35771 17.0624 9.51641 16.9564C9.6751 16.8503 9.79879 16.6996 9.87182 16.5233C9.94486 16.347 9.96397 16.1529 9.92674 15.9657C9.8895 15.7786 9.7976 15.6066 9.66264 15.4716C9.52768 15.3367 9.35573 15.2448 9.16854 15.2075C8.98135 15.1703 8.78732 15.1894 8.61099 15.2625C8.43466 15.3355 8.28395 15.4592 8.17791 15.6179C8.07188 15.7766 8.01528 15.9631 8.01528 16.154C8.01323 16.2897 8.04008 16.4242 8.09405 16.5487C8.14801 16.6732 8.22786 16.7848 8.32828 16.876Z" fill="#39B54A"/>
</svg>
