<svg width="22" height="25" viewBox="0 0 22 25" fill="none" xmlns="http://www.w3.org/2000/svg">
<path d="M0.476016 24.917C0.381112 24.8804 0.295437 24.8234 0.22509 24.7499C0.154744 24.6765 0.101454 24.5884 0.0690159 24.492C0.00701585 24.343 -0.00098415 23.039 1.58502e-05 12.492C0.00101585 1.106 0.00101585 0.651 0.0850158 0.477C0.121593 0.382096 0.178641 0.296421 0.252099 0.226074C0.325557 0.155728 0.413618 0.102439 0.510016 0.07C0.659016 0.008 1.68402 0 9.71702 0H18.757L18.957 0.1C19.0855 0.165397 19.1958 0.261594 19.278 0.38L19.401 0.561V3.982C19.401 7.317 19.401 7.405 19.313 7.468C19.1124 7.53578 18.8992 7.55765 18.689 7.532C18.214 7.532 18.143 7.522 18.063 7.441C17.983 7.36 17.972 7.29 17.972 4.401V1.452H1.45102V23.552H17.968V21.881C17.9068 21.2906 17.9308 20.6946 18.039 20.111C18.106 20.011 18.139 20.011 18.696 20.011C19.253 20.011 19.285 20.011 19.353 20.118C19.4629 20.8512 19.4824 21.5951 19.411 22.333L19.401 24.442L19.273 24.635C19.194 24.7548 19.0841 24.8512 18.955 24.914C18.768 25 18.501 25 9.71002 25C1.02202 25 0.650016 25 0.476016 24.917M3.84102 20.317C3.77302 20.267 3.76402 20.187 3.77602 19.694C3.78802 19.142 3.79102 19.127 3.90202 19.071C4.76607 18.9934 5.63436 18.9741 6.50102 19.013C8.95202 19.013 9.18302 19.025 9.27002 19.163C9.3007 19.3487 9.31243 19.537 9.30502 19.725C9.30502 20.199 9.29902 20.238 9.20502 20.304C8.31298 20.4219 7.41102 20.4457 6.51402 20.375C5.6241 20.4176 4.7323 20.3986 3.84502 20.318M13.494 16.4C12.394 15.462 11.477 14.67 11.447 14.641C11.417 14.612 11.513 14.447 11.934 13.954C12.1186 13.7279 12.3145 13.5113 12.521 13.305C12.545 13.297 13.188 13.822 13.948 14.473C14.708 15.124 15.342 15.656 15.356 15.656C15.37 15.656 16.556 14.385 17.996 12.831C19.436 11.277 20.626 10.001 20.644 9.994C21.1006 10.3515 21.5237 10.7498 21.908 11.184C21.892 11.247 15.557 18.106 15.515 18.106C15.499 18.106 14.59 17.338 13.495 16.4M3.97102 15.4C3.78102 15.353 3.77102 15.306 3.77102 14.726C3.77102 14.219 3.77902 14.161 3.85902 14.119C3.91702 14.088 4.83502 14.072 6.52602 14.072C7.41936 14.0014 8.31766 14.0252 9.20602 14.143C9.30002 14.209 9.30602 14.243 9.30602 14.722C9.31338 14.91 9.30165 15.0983 9.27102 15.284C9.18302 15.422 8.95702 15.434 6.52502 15.429C5.17302 15.429 4.02502 15.414 3.97602 15.401M4.08902 10.638C3.93702 10.584 3.90802 10.474 3.90802 9.96C3.90802 9.484 3.91502 9.445 4.00802 9.379C5.96949 9.24643 7.93669 9.22006 9.90102 9.3C15.351 9.3 15.701 9.3 15.792 9.379C15.883 9.458 15.892 9.492 15.876 10.002C15.863 10.53 15.86 10.547 15.749 10.602C15.659 10.647 14.433 10.659 9.89602 10.656C6.73902 10.656 4.12502 10.642 4.08802 10.629L4.08902 10.638ZM4.00102 5.828C3.90702 5.762 3.90102 5.728 3.90102 5.249C3.89372 5.06097 3.90545 4.87268 3.93602 4.687C3.9809 4.64125 4.03611 4.60695 4.09702 4.587C4.18402 4.554 5.99702 4.539 9.89702 4.539C14.746 4.539 15.59 4.549 15.725 4.605L15.882 4.671V5.215C15.882 5.726 15.876 5.764 15.782 5.83C15.626 5.936 4.15602 5.936 4.00102 5.828Z" fill="#FF8D1F"/>
</svg>
