<svg width="25" height="25" viewBox="0 0 25 25" fill="none" xmlns="http://www.w3.org/2000/svg">
<path d="M10.6048 24.988L9.98882 24.917C7.3795 24.5998 4.96312 23.3805 3.15782 21.47L2.65782 20.944L1.51682 21.606C0.889822 21.97 0.359822 22.268 0.339822 22.268C0.319822 22.268 0.445822 20.234 0.748822 16.2C0.748822 16.181 1.97682 16.777 3.47482 17.526C5.80482 18.691 6.18682 18.896 6.11882 18.946C6.07482 18.978 5.59182 19.264 5.04482 19.581L4.05082 20.157L4.49682 20.589C6.18517 22.271 8.43156 23.2757 10.8108 23.413C12.9267 23.5318 15.0257 22.9754 16.8048 21.824C16.9371 21.7236 17.0828 21.6425 17.2378 21.583C17.2858 21.613 18.1378 22.774 18.1378 22.81C17.993 22.9326 17.8385 23.0433 17.6758 23.141C16.2682 24.0682 14.6714 24.6695 13.0018 24.901C12.2055 24.9811 11.4049 25.0101 10.6048 24.988ZM18.5488 18.8C18.5398 17.177 18.5338 15.843 18.5358 15.837C18.5378 15.831 19.0058 16.093 19.5748 16.419C19.9161 16.6332 20.2743 16.8192 20.6458 16.975C20.8356 16.4707 20.9821 15.9512 21.0838 15.422C21.3708 13.902 21.292 12.3355 20.8538 10.852C20.1697 8.53717 18.6656 6.55094 16.6228 5.265C16.1307 4.96824 15.6181 4.70691 15.0888 4.483C14.9648 4.437 14.8638 4.371 14.8638 4.338C14.8638 4.283 15.3198 3.01 15.3638 2.938C15.8638 3.08819 16.346 3.29239 16.8018 3.547C17.3544 3.85002 17.8841 4.19293 18.3868 4.573C19.0356 5.10346 19.6397 5.68643 20.1928 6.316C20.9818 7.29436 21.6189 8.38593 22.0828 9.554C22.6255 10.9548 22.8707 12.4533 22.8028 13.954C22.7846 15.1278 22.571 16.2904 22.1708 17.394C22.1074 17.5532 22.0562 17.717 22.0178 17.884C22.0268 17.892 22.5178 18.213 23.1178 18.598C23.4848 18.8146 23.8333 19.0611 24.1598 19.335C24.1328 19.362 19.2248 21.484 18.6208 21.735C18.535 20.7592 18.5109 19.7789 18.5488 18.8ZM11.3678 19.116C11.314 19.0484 11.2795 18.9676 11.2678 18.882C11.2458 18.7606 11.2046 18.6435 11.1458 18.535C11.0573 18.3443 10.9222 18.1791 10.7529 18.0545C10.5837 17.9299 10.3857 17.85 10.1774 17.8222C9.96902 17.7943 9.75703 17.8195 9.56099 17.8954C9.36496 17.9712 9.19121 18.0952 9.05582 18.256C8.92282 18.403 8.81882 18.476 8.74182 18.476C8.21575 18.2683 7.76062 17.9135 7.43082 17.454C7.45116 17.3563 7.49244 17.2642 7.55182 17.184C7.69205 16.9911 7.77507 16.7625 7.79135 16.5246C7.80764 16.2866 7.75653 16.0489 7.6439 15.8386C7.53126 15.6284 7.36165 15.4542 7.15452 15.3359C6.94739 15.2176 6.71113 15.1601 6.47282 15.17C6.19982 15.157 6.04082 15.128 6.00482 15.085C5.81945 14.5785 5.75807 14.035 5.82582 13.5C5.9287 13.4226 6.04762 13.3693 6.17382 13.344C6.49821 13.2749 6.78217 13.0805 6.96382 12.803C7.13624 12.5582 7.21275 12.2585 7.17883 11.961C7.14491 11.6635 7.00292 11.3888 6.77982 11.189C6.60782 11.003 6.52882 10.879 6.52882 10.789C6.68123 10.4056 6.9056 10.055 7.18982 9.756C7.41382 9.503 7.57882 9.465 7.79982 9.618C8.05592 9.80037 8.36907 9.88455 8.68209 9.85517C8.99511 9.8258 9.28712 9.68483 9.50482 9.458C9.61456 9.34177 9.69883 9.20391 9.75221 9.05323C9.80559 8.90256 9.82692 8.74239 9.81482 8.583C9.81015 8.43443 9.82836 8.28603 9.86882 8.143C9.93282 8.033 10.3328 7.93 10.9168 7.873C11.5008 7.816 11.5808 7.862 11.6678 8.247C11.7372 8.56917 11.9274 8.85247 12.1994 9.03852C12.4714 9.22457 12.8044 9.29918 13.1298 9.247C13.4082 9.19846 13.6612 9.05499 13.8458 8.841C14.1328 8.541 14.2108 8.534 14.6338 8.816C15.1338 9.151 15.4768 9.482 15.4768 9.63C15.4613 9.73233 15.42 9.82903 15.3568 9.911C15.2098 10.1379 15.1208 10.3976 15.0978 10.667C15.1185 10.956 15.2259 11.232 15.4058 11.459C15.5334 11.6077 15.6934 11.7251 15.8736 11.8021C16.0537 11.879 16.2492 11.9136 16.4448 11.903C16.7338 11.903 16.8228 11.918 16.8928 11.988C17.0939 12.4909 17.1671 13.0359 17.1058 13.574C17.0045 13.66 16.8831 13.7188 16.7528 13.745C16.5696 13.7875 16.3976 13.869 16.2487 13.9839C16.0998 14.0988 15.9774 14.2445 15.8898 14.411C15.7625 14.6603 15.7213 14.9447 15.7727 15.2199C15.8241 15.4951 15.9651 15.7455 16.1738 15.932C16.3318 16.093 16.3928 16.193 16.3928 16.292C16.1941 16.7922 15.8629 17.2288 15.4348 17.555C15.3618 17.578 15.2658 17.547 15.1078 17.447C14.8592 17.2663 14.5527 17.1833 14.2468 17.214C14.0214 17.2318 13.8049 17.3094 13.6194 17.4388C13.434 17.5682 13.2864 17.7446 13.1918 17.95C13.1206 18.1325 13.0905 18.3285 13.1038 18.524C13.1038 18.824 13.0898 18.908 13.0198 18.972C12.658 19.1295 12.2684 19.2135 11.8738 19.219C11.4738 19.25 11.4698 19.249 11.3678 19.119V19.116ZM12.0938 17.216C12.7193 17.1847 13.3188 16.9557 13.8058 16.562C14.4617 16.0409 14.9385 15.3281 15.1698 14.523C15.2969 14.0054 15.3187 13.4675 15.2338 12.9413C15.149 12.4152 14.9592 11.9114 14.6758 11.46C14.2743 10.846 13.7052 10.36 13.036 10.0595C12.3667 9.75906 11.6253 9.65675 10.8997 9.76473C10.1741 9.8727 9.49464 10.1864 8.94186 10.6687C8.38908 11.151 7.98615 11.7817 7.78082 12.486C7.67598 12.8146 7.63193 13.1596 7.65082 13.504C7.62039 14.075 7.74039 14.6439 7.99882 15.154C8.23585 15.6662 8.58358 16.1194 9.01692 16.481C9.45027 16.8426 9.95845 17.1035 10.5048 17.245C11.0276 17.3757 11.5756 17.3667 12.0938 17.219V17.216ZM0.113822 15.216C0.0224234 14.5458 -0.0140313 13.8692 0.00482167 13.193C0.0772516 11.202 0.669093 9.26463 1.72161 7.57307C2.77412 5.8815 4.25071 4.4946 6.00482 3.55C6.86023 3.09932 7.76674 2.75317 8.70482 2.519L9.14882 2.411L9.11782 1.206L9.08682 0L9.19382 0.068C9.25182 0.1 10.4048 0.8 11.7498 1.619C13.0948 2.438 14.2048 3.116 14.2048 3.134C14.2048 3.175 9.23182 6.514 9.20482 6.489C9.17782 6.464 9.17182 5.923 9.15382 5.254L9.11882 4.038L8.99582 4.066C7.91472 4.36367 6.88502 4.82356 5.94182 5.43C4.50354 6.39155 3.34492 7.71612 2.5833 9.26956C1.82169 10.823 1.48413 12.5501 1.60482 14.276C1.63582 14.667 1.65282 14.994 1.64382 15.003C1.13809 15.1016 0.627318 15.1724 0.113822 15.215V15.216Z" fill="#39B54A"/>
</svg>
