<svg width="25" height="25" viewBox="0 0 25 25" fill="none" xmlns="http://www.w3.org/2000/svg">
<path d="M1.75876 24.9473C1.19662 24.8074 0.707219 24.4621 0.386865 23.9794C0.0665109 23.4968 -0.0615945 22.9117 0.027759 22.3393C0.0780799 22.1246 0.150812 21.9158 0.244759 21.7163C0.403759 21.3853 0.544759 21.2353 6.96976 14.8053C12.3478 9.42034 13.5498 8.19434 13.6268 8.01834C13.7787 7.66272 13.794 7.26355 13.6698 6.89734C13.5363 6.15898 13.5281 5.40339 13.6458 4.66234C13.8837 3.48066 14.4842 2.4026 15.3638 1.57834C15.9607 0.986296 16.6867 0.540593 17.4848 0.276181C18.2829 0.0117688 19.1314 -0.0641644 19.9638 0.0543362C20.3973 0.0981593 20.8164 0.234567 21.1928 0.454336C21.2348 0.525336 21.0318 0.741336 19.6678 2.08034L18.0918 3.62634L18.1248 4.98134C18.1428 5.72634 18.1738 6.38134 18.1948 6.43534C18.2718 6.64334 18.3658 6.66134 19.8488 6.73534C20.3527 6.80995 20.8644 6.81533 21.3698 6.75134C21.4308 6.71934 22.1428 6.04534 22.9518 5.25134C24.1288 4.10134 24.4428 3.81734 24.5248 3.82834C24.6068 3.83934 24.6438 3.90034 24.7308 4.20434C25.1253 5.57179 24.9959 7.03721 24.3678 8.31434C23.9642 9.10398 23.392 9.79528 22.6918 10.3393C22.1205 10.74 21.4903 11.049 20.8238 11.2553C19.9282 11.4861 18.9929 11.5178 18.0838 11.3483C17.7089 11.2471 17.3113 11.2702 16.9508 11.4143C16.7668 11.5013 15.5138 12.7293 10.1758 18.0573C6.57576 21.6573 3.55176 24.6383 3.46176 24.6913C2.94128 24.9725 2.33891 25.0631 1.75876 24.9473Z" fill="#6D6D6D"/>
</svg>
