<svg width="23" height="26" viewBox="0 0 23 26" fill="none" xmlns="http://www.w3.org/2000/svg">
<path d="M0.47 24.9392C0.282712 24.8435 0.133546 24.6869 0.047 24.4952C0.014 24.4082 0 21.0502 0 13.4272V2.48519L0.1 2.28519C0.161828 2.16819 0.248115 2.06588 0.353 1.98519L0.505 1.88519H5.735V1.03319C5.735 -0.0738105 5.669 0.00118957 6.626 0.00118957C7.583 0.00118957 7.526 -0.0758104 7.538 1.00919L7.549 1.86019H14.718L14.729 1.00919C14.744 -0.0748104 14.674 0.00118957 15.642 0.00118957C16.61 0.00118957 16.533 -0.0748104 16.533 1.03119V1.88219H21.762L21.914 1.98219C22.0189 2.06288 22.1052 2.16519 22.167 2.28219L22.267 2.48219V13.4322C22.267 22.6322 22.257 24.4022 22.205 24.5232C22.1122 24.7154 21.9547 24.8687 21.76 24.9562C21.672 24.9892 18.443 25.0032 11.119 25.0022C2.434 25.0012 0.581 24.9892 0.47 24.9392ZM20.879 16.4012V9.32119H1.389V23.4792H20.879V16.4012ZM13.327 21.4242C12.8459 21.0486 12.3942 20.6367 11.976 20.1922L10.807 19.0432L9.626 20.1702C9.20567 20.5897 8.76303 20.9863 8.3 21.3582C8.07316 21.4361 7.82684 21.4361 7.6 21.3582C7.49439 21.3071 7.39991 21.2358 7.32196 21.1481C7.244 21.0605 7.18413 20.9583 7.14575 20.8475C7.10738 20.7366 7.09128 20.6193 7.09835 20.5022C7.10543 20.3851 7.13556 20.2706 7.187 20.1652C7.22 20.1022 7.762 19.5602 8.393 18.9652C9.024 18.3702 9.54 17.8582 9.54 17.8382C9.3243 17.5951 9.09634 17.3631 8.857 17.1432C8.067 16.3822 7.887 16.2722 7.43 16.2712C7.26658 16.2582 7.10272 16.2901 6.95609 16.3634C6.80946 16.4367 6.68564 16.5487 6.598 16.6872C6.4094 17.023 6.31152 17.4021 6.314 17.7872C6.314 18.0662 6.246 18.1962 6.101 18.1962C5.979 18.1962 5.557 17.6962 5.401 17.3672C5.22768 16.9887 5.14639 16.5746 5.16377 16.1587C5.18115 15.7428 5.29671 15.3369 5.501 14.9742C5.8391 14.5604 6.20069 14.1665 6.584 13.7942C7.454 12.9142 7.562 12.8202 7.697 12.8202C7.832 12.8202 7.846 12.8092 7.846 12.6792C7.846 12.5492 7.917 12.4662 8.28 12.0972C8.56 11.8122 8.748 11.6552 8.809 11.6552C9.44665 12.0929 10.0263 12.6097 10.534 13.1932C10.534 13.2642 10.372 13.4552 10.003 13.8192C9.52 14.2962 9.458 14.3432 9.309 14.3432C9.16 14.3432 9.145 14.3562 9.145 14.4542C9.18542 14.6182 9.24942 14.7755 9.335 14.9212C9.55641 15.3063 9.85417 15.6422 10.21 15.9082C10.586 16.2552 10.91 16.5382 10.927 16.5382C10.944 16.5382 11.288 16.2202 11.69 15.8322L12.421 15.1272L12.39 14.5882C12.3448 14.2616 12.3779 13.929 12.4866 13.6178C12.5952 13.3066 12.7764 13.0256 13.015 12.7982C13.2546 12.5378 13.5593 12.3461 13.8976 12.2427C14.236 12.1394 14.5958 12.1281 14.94 12.2102C15.331 12.3022 15.34 12.3392 15.081 12.5862L14.465 13.1642L14.074 13.5322V14.0432C14.074 14.4332 14.089 14.5672 14.139 14.6082C14.4766 14.6948 14.8235 14.7394 15.172 14.7412C15.282 14.7412 15.419 14.6412 15.911 14.1802L16.511 13.6192L16.566 13.7552C16.6672 14.0951 16.6789 14.4554 16.6 14.8012C16.4776 15.3484 16.1462 15.8261 15.6766 16.1325C15.2069 16.4389 14.6362 16.5497 14.086 16.4412C13.592 16.3642 13.61 16.3542 12.793 17.1412L12.183 17.7272L13.351 18.8012C14.615 19.9652 14.741 20.1202 14.74 20.5202C14.7198 20.7885 14.6147 21.0435 14.44 21.2482C14.2853 21.3723 14.1008 21.4538 13.9048 21.4845C13.7088 21.5152 13.5083 21.4941 13.323 21.4232L13.327 21.4242ZM20.879 5.75919V3.54219H16.936V4.21619C16.936 4.87719 16.936 4.89219 16.823 5.00319L16.71 5.11619L15.923 5.10119C15.205 5.08819 15.131 5.07919 15.073 5.00119C15.015 4.92319 15.009 4.74919 15.009 4.22819V3.54219H7.3V4.21619C7.3 4.87219 7.3 4.89319 7.19 5.00019C7.08 5.10719 7.067 5.11019 6.321 5.11019C5.297 5.11019 5.355 5.16119 5.336 4.24019L5.322 3.54019H1.344V5.72919C1.344 6.92919 1.357 7.92919 1.374 7.94719C1.391 7.96519 5.786 7.97719 11.141 7.97719H20.878L20.879 5.75919Z" fill="#DE2C36"/>
</svg>
