<svg width="15" height="14" viewBox="0 0 15 14" fill="none" xmlns="http://www.w3.org/2000/svg">
<path d="M14.6535 9.75783L13.2892 7.59363C13.1341 7.35314 12.8086 7.27797 12.5605 7.42831L10.3279 8.75088C10.0799 8.90121 10.0023 9.21675 10.1574 9.45724C10.3125 9.69773 10.638 9.7729 10.8861 9.62256L12.0488 8.93118C11.3668 10.9751 9.87838 12.2526 7.89385 12.448V7.23291H9.24265C9.53724 7.23291 9.76974 7.00752 9.76974 6.72195C9.76974 6.43639 9.53723 6.211 9.24265 6.211H7.89385V4.5127C8.80854 4.28731 9.47526 3.49079 9.47526 2.54394C9.47526 1.41677 8.52953 0.5 7.36675 0.5C6.20398 0.5 5.25825 1.41677 5.25825 2.54394C5.25825 3.49079 5.94044 4.28732 6.83965 4.5127V6.211H5.49086C5.19626 6.211 4.96376 6.43639 4.96376 6.72195C4.96376 7.00752 5.19627 7.23291 5.49086 7.23291H6.83965V12.463C4.85518 12.2526 3.35132 10.9902 2.70017 8.91615L3.86294 9.60754C4.11103 9.75787 4.43655 9.6827 4.59162 9.44221C4.7467 9.20172 4.66916 8.88617 4.42107 8.73585L2.18851 7.41328C1.94043 7.26295 1.6149 7.33811 1.45984 7.5786L0.0800084 9.75777C-0.0750729 9.99826 0.00246775 10.3139 0.250555 10.4492C0.34356 10.4942 0.436566 10.5243 0.529566 10.5243C0.700112 10.5243 0.886123 10.4342 0.979118 10.2838L1.67676 9.17167C2.5296 11.8618 4.63796 13.5 7.36661 13.5C10.0953 13.5 12.2038 11.8619 13.0565 9.1867L13.7541 10.2989C13.8471 10.4492 14.0331 10.5394 14.2037 10.5394C14.2967 10.5394 14.3897 10.5093 14.4827 10.4642C14.7309 10.3139 14.8084 9.99821 14.6533 9.75772L14.6535 9.75783ZM6.31253 2.54394C6.31253 1.97281 6.79312 1.52202 7.36673 1.52202C7.94034 1.52202 8.42093 1.98789 8.42093 2.54394C8.42093 3.09998 7.94034 3.56585 7.36673 3.56585C6.79312 3.56595 6.31253 3.10009 6.31253 2.54394Z" fill="#ED1C24"/>
</svg>
