<svg width="14" height="25" viewBox="0 0 14 25" fill="none" xmlns="http://www.w3.org/2000/svg">
<path d="M4.83014 24.8235C4.32614 24.6133 3.91616 24.2265 3.67714 23.7355C3.42414 22.9695 3.49114 22.8185 5.95314 18.5305C7.21814 16.3305 8.26714 14.4695 8.28414 14.4045C8.30814 14.3045 7.62614 14.2855 4.84014 14.2855C1.61414 14.2855 1.34014 14.2735 1.02414 14.1105C0.827283 14.0204 0.65094 13.8909 0.505966 13.7301C0.360991 13.5694 0.25045 13.3806 0.181144 13.1755C0.0708774 12.9666 0.00928265 12.7355 0.000970266 12.4995C-0.00734212 12.2634 0.0378432 12.0286 0.133144 11.8125C0.212144 11.6235 1.67714 9.02248 3.38814 6.03048C6.73614 0.178481 6.75214 0.15348 7.57314 0.0154805C7.86199 -0.0209643 8.15533 0.00713211 8.43201 0.0977444C8.70869 0.188357 8.96181 0.339227 9.17314 0.539481C9.39176 0.709585 9.56105 0.934933 9.66353 1.19228C9.76601 1.44963 9.79798 1.72966 9.75614 2.00348C9.72114 2.37348 9.34414 3.09348 7.43914 6.41148C6.18814 8.59348 5.13814 10.4465 5.10614 10.5305C5.05214 10.6715 5.32914 10.6835 8.54514 10.6835C11.7611 10.6835 12.0671 10.6965 12.3621 10.8545C12.7 11.0526 12.9727 11.345 13.147 11.6958C13.3212 12.0466 13.3894 12.4405 13.3431 12.8295C13.2831 13.1475 7.08114 24.1005 6.74314 24.4795C6.40619 24.7799 5.9794 24.9606 5.52914 24.9935C5.28796 24.9783 5.05134 24.9208 4.83014 24.8235Z" fill="#39B54A"/>
</svg>
