<svg width="20" height="25" viewBox="0 0 20 25" fill="none" xmlns="http://www.w3.org/2000/svg">
<path d="M15.564 24.975C15.528 24.961 14.516 24.53 13.316 24.018C12.5951 23.6339 11.8342 23.3301 11.047 23.112C11 23.127 9.963 23.552 8.747 24.058C6.296 25.074 6.369 25.05 6.185 24.894C6.042 24.773 6.025 24.609 6.128 24.351C5.21563 24.2428 4.29475 24.2257 3.379 24.3L0.615 24.29L0.456 24.215C0.279888 24.1352 0.138049 23.9951 0.056 23.82L0 23.7V0.566L0.074 0.431C0.16166 0.271126 0.296919 0.142508 0.461 0.063L0.587 0H18.956L19.1 0.072C19.2629 0.156995 19.3962 0.289524 19.482 0.452L19.545 0.566V23.724L19.469 23.862C19.4131 23.955 19.3433 24.039 19.262 24.111C19.036 24.303 19.034 24.303 17.416 24.303H15.981L16.022 24.414C16.0471 24.4612 16.0627 24.5129 16.0678 24.5661C16.0729 24.6193 16.0675 24.673 16.0517 24.7241C16.036 24.7752 16.0104 24.8227 15.9763 24.8639C15.9422 24.905 15.9003 24.9391 15.853 24.964C15.8082 24.9855 15.7594 24.9976 15.7096 24.9995C15.6599 25.0014 15.6104 24.9931 15.564 24.975ZM9.443 22.6L11.113 21.908L12.813 22.618C13.746 23.009 14.513 23.325 14.513 23.318C14.513 23.311 13.183 19.28 13.169 19.264C13.1069 19.2873 13.0472 19.3168 12.991 19.352C12.4135 19.6716 11.7595 19.8265 11.1 19.8C10.5929 19.7736 10.096 19.6472 9.638 19.428C9.54213 19.3776 9.44168 19.3364 9.338 19.305C9.331 19.312 8.96 20.205 8.512 21.294L7.683 23.3C7.664 23.344 7.5 23.407 9.443 22.6ZM6.99 22.149C7.149 21.742 7.535 20.749 7.849 19.949L8.419 18.492L8.267 18.292C7.79954 17.6596 7.56401 16.8856 7.6 16.1C7.62328 15.4003 7.86412 14.7254 8.289 14.169C8.75908 13.5532 9.40912 13.0988 10.149 12.869C10.8067 12.6592 11.5096 12.635 12.1801 12.7993C12.8507 12.9636 13.4628 13.3099 13.949 13.8C14.2722 14.1202 14.5279 14.5021 14.7009 14.9229C14.8739 15.3437 14.9606 15.795 14.956 16.25C14.9649 16.9644 14.7417 17.6623 14.32 18.239C14.241 18.348 14.159 18.465 14.137 18.498C14.2716 19.2639 14.4975 20.0109 14.81 20.723L15.523 22.887L16.814 22.894L18.1 22.9V1.387H1.44V22.9H4.071L6.7 22.889L6.99 22.149ZM3.278 9.992C3.084 9.925 3.09 9.944 3.09 9.369C3.09 8.869 3.09 8.846 3.151 8.794C3.19431 8.75902 3.24542 8.73501 3.3 8.724C3.347 8.716 6.245 8.713 9.739 8.717L16.092 8.725L16.183 8.813L16.274 8.901L16.282 9.325C16.291 9.81 16.265 9.901 16.092 9.984C16 10.028 15.637 10.031 9.692 10.03C4.488 10.029 3.365 10.022 3.278 9.992ZM3.225 5.374C3.16366 5.36152 3.10462 5.33959 3.05 5.309L2.977 5.263L2.985 4.719L2.993 4.175L3.093 4.128C4.34784 4.03492 5.6072 4.01889 6.864 4.08C9.726 4.08 10.555 4.088 10.608 4.114C10.6564 4.14215 10.6992 4.17912 10.734 4.223C10.788 4.293 10.793 4.335 10.793 4.723C10.793 5.185 10.778 5.239 10.619 5.339C9.39377 5.43659 8.16346 5.45362 6.936 5.39C4.951 5.392 3.281 5.385 3.225 5.374ZM11.911 18.744C12.3805 18.6317 12.811 18.3947 13.157 18.058C13.3954 17.8402 13.5868 17.576 13.7196 17.2816C13.8523 16.9872 13.9236 16.6689 13.929 16.346C13.9535 15.9714 13.8848 15.5965 13.729 15.255C13.611 14.9685 13.4342 14.7099 13.21 14.496C12.8348 14.108 12.3515 13.8418 11.823 13.732C11.4252 13.6613 11.0172 13.6704 10.623 13.759C10.0979 13.8801 9.62334 14.1613 9.26504 14.5639C8.90675 14.9664 8.68239 15.4704 8.623 16.006C8.59785 16.3078 8.62149 16.6117 8.693 16.906C8.78535 17.184 8.91199 17.4494 9.07 17.696C9.15043 17.8015 9.23761 17.9017 9.331 17.996C9.70513 18.3836 10.1881 18.6487 10.716 18.756C11.1119 18.8188 11.5155 18.8147 11.91 18.744H11.911Z" fill="#6D6D6D"/>
</svg>
