<svg width="19" height="16" viewBox="0 0 19 16" fill="none" xmlns="http://www.w3.org/2000/svg">
<path d="M5.41081 14.8257L5.16389 14.9975L3.21899 9.01738L9.3613 6.56226L15.485 9.01738L13.5419 14.9999L13.2966 14.8325C10.9726 14.8325 7.59845 14.8257 5.41081 14.8257ZM13.2952 14.3774L14.8004 9.42194L9.36132 7.24516L3.90215 9.42631L5.4107 14.3774C6.34864 14.3774 12.3212 14.3774 13.2952 14.3774Z" fill="#15ACA2" stroke="#15ACA2" stroke-width="0.5"/>
<path d="M15.279 9.61429L9.35813 7.2396L3.41684 9.61429L2.71837 7.57883C2.67778 7.4614 2.67778 7.32657 2.71837 7.20697C2.75896 7.08737 2.83844 6.99603 2.93484 6.95471L9.35795 4.24951L15.7678 6.9569C15.8625 7.0004 15.9403 7.0939 15.9808 7.21351C16.0197 7.33093 16.018 7.46359 15.9792 7.57884L15.279 9.61429ZM3.24954 7.50924L3.6977 8.81836L9.35819 6.55677L14.9983 8.81836L15.4464 7.50924L9.35795 4.93669L3.24954 7.50924Z" fill="#15ACA2" stroke="#15ACA2" stroke-width="0.5"/>
<path d="M4.2305 7.09097L4.71079 1.75023C4.74969 1.32185 5.03043 1 5.36359 1H13.3308C13.6656 1 13.9464 1.32184 13.9853 1.75023L14.4656 7.08898L9.358 4.93177L4.2305 7.09097ZM5.36362 1.6544C5.28752 1.6544 5.22325 1.72834 5.21479 1.82619L4.82582 6.15374L9.35817 4.24661L13.8704 6.15155L13.4815 1.82639C13.473 1.72854 13.4087 1.6546 13.3309 1.6546L5.36362 1.6544Z" fill="#15ACA2" stroke="#15ACA2" stroke-width="0.5"/>
<path d="M9.11115 6.91211H9.6185V14.6972H9.11115V6.91211Z" fill="#15ACA2" stroke="#15ACA2" stroke-width="0.5"/>
<path d="M1 9.51001V14.8849H17.6667V9.51001" stroke="#15ACA2" stroke-width="1.25" stroke-linecap="round"/>
</svg>
