<svg width="28" height="22" viewBox="0 0 28 22" fill="none" xmlns="http://www.w3.org/2000/svg">
<path d="M7.68852 20.7512L7.31407 20.9966L4.36464 12.4535L13.6794 8.9462L22.9661 12.4535L20.0192 21L19.6473 20.7608C16.1229 20.7608 11.0061 20.7512 7.68852 20.7512ZM19.6452 20.1108L21.9278 13.0315L13.6795 9.92177L5.40064 13.0377L7.68835 20.1108C9.11074 20.1108 18.1681 20.1108 19.6452 20.1108Z" fill="#15ACA2" stroke="#15ACA2" stroke-width="0.65"/>
<path d="M22.6538 13.3064L13.6748 9.91398L4.66486 13.3064L3.60563 10.3986C3.54408 10.2308 3.54408 10.0382 3.60563 9.86737C3.66718 9.69651 3.78772 9.56603 3.93391 9.507L13.6745 5.64243L23.395 9.51013C23.5386 9.57226 23.6566 9.70584 23.7181 9.8767C23.7771 10.0445 23.7746 10.234 23.7156 10.3986L22.6538 13.3064ZM4.41114 10.2992L5.09078 12.1694L13.6749 8.93851L22.2281 12.1694L22.9077 10.2992L13.6745 6.62411L4.41114 10.2992Z" fill="#15ACA2" stroke="#15ACA2" stroke-width="0.65"/>
<path d="M5.89873 9.70139L6.62709 2.07176C6.68608 1.45979 7.11183 1 7.61705 1H19.6993C20.2071 1 20.6328 1.45978 20.6918 2.07176L21.4202 9.69855L13.6746 6.61682L5.89873 9.70139ZM7.6171 1.93486C7.50169 1.93486 7.40423 2.04048 7.3914 2.18028L6.80153 8.36249L13.6748 5.63801L20.5176 8.35936L19.9278 2.18056C19.9149 2.04077 19.8175 1.93514 19.6995 1.93514L7.6171 1.93486Z" fill="#15ACA2" stroke="#15ACA2" stroke-width="0.65"/>
<path d="M13.3001 9.44576H14.0695V20.5673H13.3001V9.44576Z" fill="#15ACA2" stroke="#15ACA2" stroke-width="0.65"/>
<path d="M1 13.1574V20.8359H26.2749V13.1574" stroke="#15ACA2" stroke-width="1.75" stroke-linecap="round"/>
</svg>
